<?xml version="1.0" encoding="utf-8"?>
<!-- Generator: Adobe Illustrator 19.1.0, SVG Export Plug-In . SVG Version: 6.00 Build 0)  -->
<svg version="1.1" id="Layer_1" xmlns="http://www.w3.org/2000/svg" xmlns:xlink="http://www.w3.org/1999/xlink" x="0px" y="0px"
	 viewBox="-163 369 285 55" style="enable-background:new -163 369 285 55;" xml:space="preserve">
<style type="text/css">
	.st0{fill:#1B1733;}
	.st1{fill:#FFFFFF;}
</style>
<path class="st0" d="M94.5,424h-230c-15.2,0-27.5-12.3-27.5-27.5l0,0c0-15.2,12.3-27.5,27.5-27.5h230c15.2,0,27.5,12.3,27.5,27.5
	l0,0C122,411.7,109.7,424,94.5,424z"/>
<g>
	<path class="st1" d="M41.9,384.8c-1.5,1.2-0.9,3.5,0.9,3.9c1.8,0.3,3.1-1.5,2.3-3.2C44.6,384.4,42.8,384,41.9,384.8z"/>
	<path class="st1" d="M-88.2,399.1c0-6-0.1-6.7-1.3-8c-0.4-0.4-1.1-0.9-1.5-1.1c-0.9-0.4-3.2-0.6-4.3-0.3c-1.2,0.2-2.2,0.8-2.9,1.7
		c-0.7,0.8-1.2,1.9-1,2.4c0.1,0.2,2,0.7,2.8,0.7c0.2,0,0.4-0.3,0.6-0.6c0.5-1.2,1.9-1.8,3-1.3c0.5,0.3,0.9,1.2,0.9,2v0.7h-1.7
		c-2.1,0-3.6,0.6-4.8,1.8c-1,1-1.3,1.9-1.3,3.5c0,1.4,0.5,2.4,1.4,3.2c0.9,0.8,1.8,1.1,3.1,1c1.2-0.1,2.1-0.6,2.8-1.6
		c0.5-0.7,0.6-0.6,0.8,0.5l0.1,0.7l1.3,0.1C-88,404.5-88.2,405.1-88.2,399.1z M-92,398.4c0,2.4-0.7,3.5-2.1,3.5
		c-1.1,0-1.7-0.6-1.8-1.8c-0.2-1.6,1.2-2.9,3-2.9h0.9V398.4z"/>
	<path class="st1" d="M-71.9,389.7c-0.9,0.2-1.2,0.4-2,1.2c-0.5,0.5-0.9,1-0.9,1.1c0,0.4-0.3,0.1-0.7-0.6c-0.8-1.5-2.8-2.2-4.4-1.6
		c-0.8,0.3-1.6,0.9-2,1.7c-0.3,0.7-0.5,0.5-0.7-0.6l-0.2-0.9h-1.5h-1.5l-0.1,7.2v7.2h1.8h1.8l0.1-4.8c0.1-5.5,0.2-6,1.4-6.5
		c0.6-0.2,0.8-0.2,1.3-0.1c1.2,0.4,1.3,0.6,1.4,6.3l0.1,5.1h1.8c1.4,0,1.8-0.1,1.9-0.3c0.1-0.2,0.1-2.3,0.1-4.8
		c0-3.5,0.1-4.7,0.3-5.2c0.6-1.4,2.5-1.5,3.3-0.2c0.3,0.5,0.3,1.3,0.4,5.5c0.1,4.3,0.1,4.9,0.4,5c0.2,0,1,0,1.8,0l1.5-0.1l0.1-4.3
		c0.1-5-0.1-6.8-0.8-8.2C-68.4,390-70,389.2-71.9,389.7z"/>
	<path class="st1" d="M-63.3,391.2c-0.7,0.7-1.4,2.2-1.1,2.6c0.1,0.2,2,0.6,2.8,0.6c0.3,0,0.5-0.2,0.6-0.7c0.1-0.4,0.5-0.8,0.8-1
		c1.4-0.8,2.9-0.1,3.1,1.6l0.1,0.9h-1.7c-2.7,0-4.7,1-5.7,2.8c-1.1,2-0.6,4.8,1.2,6c1,0.7,2.7,0.9,3.9,0.4c0.8-0.3,2-1.4,2-1.8
		c0-0.1,0.1-0.2,0.2-0.2s0.2,0.4,0.3,0.9l0.2,0.9h1.6h1.6v-5.4c0-5.8,0-6.1-1.1-7.5c-1-1.4-3.7-2.2-6-1.7
		C-61.6,389.9-62.6,390.4-63.3,391.2z M-57.1,398.7c-0.1,1.6-0.4,2.5-1.1,2.9c-0.5,0.4-1.6,0.4-2.2,0c-0.8-0.6-0.9-2.1-0.2-3.3
		c0.4-0.6,1.6-1.2,2.7-1.2h0.9L-57.1,398.7z"/>
	<path class="st1" d="M-30.1,390.9c-1.3-1.1-3.4-1.6-5-1.2c-1.2,0.3-2.1,0.8-2.9,1.8c-2.9,3.2-2.8,8.6,0.2,11.7
		c2.7,2.7,7.2,2,9.1-1.3C-26.6,398.3-27.3,393.3-30.1,390.9z M-33.8,401.7c-0.7,0-0.9-0.1-1.4-0.7c-0.8-0.9-1-1.7-1-3.9
		c0-2.6,0.5-4.1,1.7-4.6c0.5-0.2,1.5,0,2,0.5c0.8,0.7,1.1,2,1.1,3.9C-31.3,400.2-32.2,401.7-33.8,401.7z"/>
	<path class="st1" d="M-16.4,389.9c-0.7-0.4-2.1-0.5-2.9-0.3c-0.8,0.3-1.8,1-2.1,1.6c-0.4,0.7-0.6,0.8-0.6,0.3c0-0.2-0.1-0.6-0.2-1
		l-0.2-0.7l-1.5,0.1l-1.5,0.1v7.2v7.2l1.8,0.1l1.8,0.1l0.1-4.9c0.1-4.5,0.1-4.9,0.4-5.5c0.5-0.9,1.7-1.3,2.5-0.9
		c0.3,0.2,0.7,0.5,0.9,0.8c0.4,0.5,0.4,0.8,0.5,5.5l0.1,5h1.8h1.8v-5.3c0-4.9,0-5.4-0.4-6.5C-14.7,391.4-15.5,390.4-16.4,389.9z"/>
	<path class="st1" d="M8.3,389.6c-1.1,0.2-1.7,0.5-2.6,1.6l-0.9,1l-0.3-0.5c-0.6-1.2-2.2-2.1-3.5-2.1c-0.3,0-0.8,0.1-1.2,0.3
		c-0.7,0.3-1.4,0.8-2,1.8l-0.3,0.5l-0.1-0.8c-0.2-1.3-0.3-1.3-1.9-1.3H-6v7.2v7.2h1.8h1.8l0.1-4.9c0.1-4.6,0.1-5,0.5-5.5
		c0.9-1.2,2.2-1.2,3-0.2c0.4,0.5,0.4,0.8,0.5,5.6l0.1,5l1.6,0.1c0.9,0.1,1.7,0,1.8-0.1c0.2-0.2,0.3-1.3,0.3-5
		c0.1-4.6,0.1-4.9,0.5-5.4c0.9-1.2,2.2-1.2,3-0.2c0.4,0.5,0.4,0.8,0.5,5.6l0.1,5h1.8h1.8l0.1-4.8c0.1-5-0.1-6.5-0.7-7.8
		C11.5,390.2,9.8,389.3,8.3,389.6z"/>
	<path class="st1" d="M35.1,395.5c-0.9-0.2-1.8-0.5-2.1-0.7c-1.4-0.7-0.7-2.4,0.9-2.4c0.6,0,0.9,0.1,1.4,0.5
		c0.3,0.3,0.5,0.7,0.5,0.8c0,0.5,0.2,0.5,1.5,0.3c2.1-0.3,2.2-0.4,1.5-2c-1-2.1-4-3.2-6.8-2.5c-2.2,0.6-3.4,2.1-3.4,4.3
		c0,1.2,0.5,2.4,1.3,3c0.8,0.6,1.3,0.8,3.5,1.4c0.9,0.3,1.8,0.6,2,0.8c0.9,0.8,0.5,2.2-0.7,2.5c-1.4,0.4-2.5-0.3-2.9-1.7
		c-0.1-0.4-0.3-0.8-0.4-0.8c-0.2-0.1-2.7,0.3-3,0.5c-0.4,0.3,0.3,2.5,1.2,3.4c1.4,1.5,4.3,2.1,6.4,1.3c2.1-0.8,3.3-2.3,3.3-4.3
		c0-1.5-0.2-2-0.9-2.8C37.9,396.4,37.1,396,35.1,395.5z"/>
	<path class="st1" d="M57.4,399.1c-1.9-0.3-1.8-0.3-2.2,0.7c-0.5,1.3-1.1,1.9-2.1,1.9c-1.5,0-2.4-1.6-2.4-4.6c0-2.1,0.4-3.5,1.2-4.1
		c0.7-0.6,1.6-0.6,2.2-0.2c0.4,0.3,1.2,1.6,1.2,2c0,0.6,0.5,0.6,1.9,0.4c1.5-0.3,1.5-0.3,1.5-0.8c0-1.5-1.7-3.7-3.3-4.4
		c-1.2-0.5-2.8-0.5-4-0.1c-2.5,0.9-4.3,3.4-4.5,6.6c-0.3,3.6,1.5,7,4.2,8c2.2,0.8,4.9,0.2,6.4-1.6c0.7-0.8,1.2-2.1,1.2-2.9
		C58.7,399.4,58.7,399.3,57.4,399.1z"/>
	<path class="st1" d="M-41.3,401.5c-0.7-0.5-2.5-0.9-4-0.9c-0.8,0-1.5-0.1-1.5-0.1s1.2-1.7,2.7-3.8l2.7-3.8v-1.5v-1.5h-5
		c-3.9,0-5,0.1-5,0.2c-0.1,1.1,0,2.5,0.1,2.6c0.1,0.1,1.4,0.2,2.9,0.2l2.8,0.1l-3,4.2l-3,4.2v1.5c0,1.1,0.1,1.5,0.2,1.5
		c0.2,0,0.9-0.2,1.8-0.4c2-0.5,4.6-0.5,6.6,0c2.1,0.6,2,0.6,2-0.9C-40.9,401.9-40.9,401.7-41.3,401.5z"/>
	<path class="st1" d="M23.1,389.9v4.3c0,2.4-0.1,4.8-0.2,5.3c-0.3,1.5-1.6,2.3-2.9,1.7c-0.9-0.4-1-0.7-1.1-6.1l-0.1-5.1l-1.8-0.1
		c-1.4,0-1.8,0-1.8,0.2c-0.1,0.2-0.1,2.7,0,5.6l0.1,5.3l0.6,1.3c0.8,1.6,1.7,2.2,3.2,2.4c1.5,0.1,2.7-0.4,3.4-1.6
		c0.3-0.5,0.6-0.8,0.6-0.6s0.2,0.6,0.2,1l0.2,0.8l1.6,0.1l1.5,0.1v-7.3v-7.3h-1.8C24.8,389.9,23.1,389.9,23.1,389.9z"/>
	<path class="st1" d="M43.3,389.9c-0.9,0-1.7,0.1-1.8,0.1c-0.1,0.1-0.1,3.3-0.1,7.3v7.1l1.8-0.1l1.8-0.1l0.1-6.8c0-3.7,0-7-0.1-7.2
		C44.9,389.9,44.8,389.9,43.3,389.9z"/>
	<path class="st1" d="M-47.3,405.7c-1.3,0.2-3.3,1.2-3.7,1.8c-0.3,0.5-0.3,0.5,0.1,0.8c0.2,0.2,0.5,0.2,0.8,0.2s1.1-0.2,2-0.3
		c2.4-0.3,3.9,0,3.9,0.9c0,0.5-0.6,2.1-1.5,3.8c-0.7,1.5-0.8,1.8-0.6,2c0.4,0.5,0.7,0.4,1.9-0.8c1.3-1.2,1.9-2.2,2.4-3.8
		c0.5-1.7,0.5-3.1-0.1-3.7C-42.9,405.8-45.3,405.4-47.3,405.7z"/>
	<path class="st1" d="M-47.3,409.9c-0.1,0-1.1,0.4-2.3,0.9c-5.4,2.4-11.1,3.4-17.9,3.2c-8.6-0.3-15-2.4-20.8-6.8
		c-1-0.7-1.7-0.9-1.9-0.4c-0.2,0.6,0.5,1.7,2.5,3.6c3.7,3.7,8,6,13.8,7.2c1.8,0.4,2.5,0.4,7.1,0.4c5.6,0,6.9-0.2,10.7-1.4
		c5-1.6,10.2-5.3,9.2-6.5C-47,410-47.2,409.9-47.3,409.9z"/>
</g>
</svg>
