<?xml version="1.0" encoding="utf-8"?>
<!-- Generator: Adobe Illustrator 19.1.0, SVG Export Plug-In . SVG Version: 6.00 Build 0)  -->
<svg version="1.1" id="Layer_1" xmlns="http://www.w3.org/2000/svg" xmlns:xlink="http://www.w3.org/1999/xlink" x="0px" y="0px"
	 viewBox="-163 369 285 55" style="enable-background:new -163 369 285 55;" xml:space="preserve">
<style type="text/css">
	.st0{fill:#1B1733;}
	.st1{fill:#FFFFFF;}
</style>
<path class="st0" d="M94.5,424h-230c-15.2,0-27.5-12.3-27.5-27.5l0,0c0-15.2,12.3-27.5,27.5-27.5h230c15.2,0,27.5,12.3,27.5,27.5
	l0,0C122,411.7,109.7,424,94.5,424z"/>
<g>
	<g id="_Group__2_">
		<g id="_Group_2_2_">
			<path id="_Compound_Path__2_" class="st1" d="M-49.1,405h-5.7l-1.4,4.1h-2.4l5.4-15h2.5l5.4,15h-2.5L-49.1,405z M-54.2,403.1h4.5
				l-2.2-6.6H-52L-54.2,403.1z"/>
			<path id="_Compound_Path_2_2_" class="st1" d="M-33.6,403.6c0,3.4-1.8,5.6-4.6,5.6c-1.4,0.1-2.8-0.7-3.4-1.9h-0.1v5.4h-2.2v-14.6
				h2.2v1.8l0,0c0.7-1.2,2.1-2,3.5-1.9C-35.4,398-33.6,400.2-33.6,403.6z M-35.9,403.6c0-2.2-1.1-3.7-2.9-3.7
				c-1.7,0-2.9,1.5-2.9,3.7c0,2.2,1.2,3.7,2.9,3.7C-37,407.3-35.9,405.8-35.9,403.6L-35.9,403.6z"/>
			<path id="_Compound_Path_3_2_" class="st1" d="M-21.5,403.6c0,3.4-1.8,5.6-4.6,5.6c-1.4,0.1-2.8-0.7-3.4-1.9h-0.1v5.4h-2.2v-14.6
				h2.2v1.8l0,0c0.7-1.2,2.1-2,3.5-1.9C-23.4,398-21.5,400.2-21.5,403.6z M-23.8,403.6c0-2.2-1.1-3.7-2.9-3.7
				c-1.7,0-2.9,1.5-2.9,3.7c0,2.2,1.2,3.7,2.9,3.7S-23.8,405.8-23.8,403.6z"/>
			<path id="_Compound_Path_4_2_" class="st1" d="M-19.7,394h2.2v15h-2.2V394z"/>
			<path id="_Compound_Path_5_2_" class="st1" d="M-5.8,405.8c-0.3,2-2.2,3.4-4.7,3.4c-3.2,0-5.2-2.1-5.2-5.6c0-3.4,2-5.7,5.1-5.7
				c3,0,4.9,2.1,4.9,5.4v0.8h-7.7v0.1c-0.1,1.6,1,3,2.6,3.1c0.1,0,0.2,0,0.4,0c1.1,0.1,2.1-0.5,2.5-1.5H-5.8L-5.8,405.8z
				 M-13.4,402.6h5.5c0.1-1.5-1-2.7-2.5-2.8c-0.1,0-0.1,0-0.2,0C-12.1,399.8-13.4,401-13.4,402.6L-13.4,402.6z"/>
			<path id="_Compound_Path_6_2_" class="st1" d="M13.8,409.1V398h-0.1l-4.5,11H7.5l-4.6-11H2.8v11.1H0.7V394h2.7l4.9,11.9h0.1
				l4.9-11.9H16v15h-2.2V409.1z"/>
			<path id="_Compound_Path_7_2_" class="st1" d="M27.9,409.1h-2.2v-1.9h-0.1c-0.6,1.3-2,2.1-3.4,2c-2,0.1-3.7-1.4-3.9-3.4
				c0-0.2,0-0.4,0-0.6v-7h2.2v6.6c-0.2,1.2,0.6,2.3,1.8,2.5c0.2,0,0.4,0,0.6,0c1.4,0,2.6-1.1,2.6-2.5c0-0.1,0-0.3,0-0.4v-6.3h2.2
				L27.9,409.1L27.9,409.1z"/>
			<path id="_Compound_Path_8_2_" class="st1" d="M34.3,398c2.4,0,4.2,1.3,4.2,3.3h-2.1c-0.2-1-1.1-1.7-2.2-1.6l0,0
				c-1.2,0-2,0.6-2,1.4c0,0.7,0.5,1.1,1.7,1.4l1.8,0.4c2.2,0.5,3,1.3,3,2.9c0,2-1.9,3.3-4.5,3.3s-4.3-1.3-4.5-3.3h2.2
				c0.2,1.1,1.3,1.8,2.4,1.6c1.3,0,2.2-0.6,2.2-1.4c0-0.7-0.4-1-1.6-1.3l-2-0.5c-2-0.5-3-1.5-3-3C30,399.3,31.7,398,34.3,398z"/>
			<path id="_Compound_Path_9_2_" class="st1" d="M40.5,395.2c0-0.7,0.6-1.3,1.3-1.3s1.3,0.6,1.3,1.3c0,0.7-0.6,1.3-1.3,1.3l0,0
				C41.1,396.5,40.5,395.9,40.5,395.2L40.5,395.2z M40.7,398.1h2.2v11h-2.2V398.1z"/>
			<path id="_Compound_Path_10_2_" class="st1" d="M52.6,401.9c-0.2-1.2-1.3-2.1-2.6-2c-1.7,0-2.9,1.4-2.9,3.7
				c0,2.3,1.2,3.7,2.9,3.7c1.2,0.1,2.4-0.7,2.6-2h2.2c-0.3,2.4-2.4,4.1-4.7,3.8c-3.1,0-5.2-2.1-5.2-5.6c0-3.4,2-5.6,5.1-5.6
				c2.4-0.2,4.5,1.5,4.7,3.9L52.6,401.9z"/>
		</g>
		<path id="_Compound_Path_11_2_" class="st1" d="M-65.4,384.4c-0.7-1.8-2.2-3.1-4.1-3.7c-1.2-0.3-2.4-0.4-3.7-0.4h-13.7
			c-1.2,0-2.5,0.1-3.7,0.4c-1.8,0.6-3.3,1.9-4.1,3.7c-0.5,1.4-0.7,2.8-0.6,4.3v13.7c-0.1,1.5,0.1,2.9,0.6,4.3
			c0.7,1.8,2.2,3.1,4.1,3.7c1.2,0.3,2.4,0.4,3.7,0.4h13.7c1.2,0,2.5-0.1,3.7-0.4c1.8-0.6,3.3-1.9,4.1-3.7c0.5-1.4,0.7-2.8,0.6-4.3
			v-13.7C-64.8,387.2-65,385.8-65.4,384.4z M-73.1,401.2c-0.1,0.4-0.2,0.7-0.4,1c-0.2,0.3-0.5,0.6-0.8,0.8s-0.7,0.3-1.1,0.4
			c-0.5,0.1-1.1,0.2-1.6,0.1c-0.4-0.1-0.8-0.3-1.1-0.6c-1-0.9-1-2.4-0.2-3.3c0,0,0,0,0.1-0.1c0.3-0.3,0.6-0.5,1-0.6
			c0.5-0.2,1.1-0.3,1.7-0.4c0.2,0,0.4-0.1,0.6-0.1c0.3,0,0.5-0.1,0.7-0.3c0.1-0.2,0.2-0.5,0.2-0.7v-6.7c0-0.5-0.2-0.7-0.7-0.6
			c-0.3,0.1-7.9,1.6-7.9,1.6c-0.3,0-0.6,0.3-0.6,0.7v0.1v9.8c0,0.4,0,0.7-0.1,1.1s-0.2,0.7-0.4,1c-0.2,0.3-0.5,0.6-0.8,0.8
			c-0.3,0.2-0.7,0.3-1.1,0.4c-0.5,0.1-1.1,0.2-1.6,0.1c-0.4-0.1-0.8-0.3-1.1-0.6c-1-0.9-1-2.4-0.1-3.4c0.3-0.3,0.6-0.5,1-0.6
			c0.5-0.2,1.1-0.3,1.7-0.4c0.2,0,0.4-0.1,0.6-0.1c0.3,0,0.5-0.1,0.7-0.3c0.2-0.2,0.2-0.5,0.2-0.7v-11.5c0-0.1,0-0.2,0-0.3
			c0-0.2,0.1-0.4,0.3-0.6c0.2-0.1,0.4-0.2,0.6-0.3l0,0l9-1.8c0.1,0,0.7-0.1,0.8-0.1c0.4,0,0.7,0.2,0.8,0.6c0,0.1,0,0.1,0,0.2v14.3
			C-73,400.5-73,400.9-73.1,401.2L-73.1,401.2z"/>
	</g>
	<g>
		<path class="st1" d="M-53.4,389.4H-58v-7.3h1.1v6.3h3.4L-53.4,389.4L-53.4,389.4z"/>
		<path class="st1" d="M-52,382.3c0-0.4,0.3-0.7,0.7-0.7c0.4,0,0.7,0.3,0.7,0.7c0,0.4-0.3,0.7-0.7,0.7l0,0
			C-51.7,383-52,382.7-52,382.3L-52,382.3z M-51.9,383.9h1.1v5.5h-1.1V383.9z"/>
		<path class="st1" d="M-47,383.8c1-0.2,2,0.5,2.2,1.6h-1c-0.2-0.5-0.6-0.7-1.1-0.7c-0.5-0.1-1,0.2-1.1,0.7c0,0.3,0.3,0.5,0.9,0.7
			l0.9,0.2c0.8,0,1.5,0.7,1.5,1.5c-0.1,1.1-1.1,1.9-2.2,1.7H-47c-1.1,0.2-2.1-0.5-2.3-1.6h1.1c0.2,0.5,0.7,0.8,1.2,0.7
			c0.5,0.1,1-0.2,1.2-0.7c-0.1-0.4-0.4-0.7-0.8-0.7l-1-0.2c-0.8,0-1.5-0.7-1.5-1.5C-49.1,384.4-48.1,383.7-47,383.8
			C-47.1,383.8-47.1,383.8-47,383.8z"/>
		<path class="st1" d="M-41.9,382.5v1.4h1.2v0.9h-1.2v2.8c-0.1,0.4,0.2,0.7,0.5,0.8c0.1,0,0.2,0,0.2,0c0.1,0,0.3,0,0.4,0v0.9
			c-0.2,0-0.4,0.1-0.6,0.1c-1.2,0-1.7-0.4-1.7-1.5v-3.1H-44v-0.9h0.9v-1.4C-43.1,382.5-41.9,382.5-41.9,382.5z"/>
		<path class="st1" d="M-34.6,387.9c-0.3,1-1.3,1.7-2.4,1.6c-1.4,0-2.5-1.1-2.6-2.4c0-0.1,0-0.3,0-0.4c-0.2-1.4,0.8-2.7,2.2-2.9
			c0.1,0,0.2,0,0.4,0c1.3,0,2.5,1,2.5,2.4c0,0.1,0,0.3,0,0.4v0.4h-3.9l0,0c-0.1,0.8,0.5,1.5,1.3,1.6h0.1c0.5,0.1,1.1-0.2,1.3-0.7
			H-34.6z M-38.4,386.2h2.8c0.1-0.7-0.5-1.4-1.2-1.4h-0.1C-37.8,384.7-38.4,385.3-38.4,386.2C-38.4,386.1-38.4,386.1-38.4,386.2z"/>
		<path class="st1" d="M-33.1,383.9h1.1v0.9h0.1c0.3-0.6,0.9-1,1.6-1c1-0.1,1.9,0.7,1.9,1.7c0,0.1,0,0.3,0,0.4v3.6h-1.1v-3.3
			c0.1-0.6-0.3-1.2-0.9-1.3c-0.1,0-0.2,0-0.3,0c-0.7,0-1.3,0.5-1.3,1.2c0,0.1,0,0.1,0,0.2v3.2h-1.1V383.9z"/>
		<path class="st1" d="M-24,386.7c-0.1-1.4,0.9-2.7,2.4-2.9c1.4-0.1,2.7,0.9,2.9,2.4c0,0.2,0,0.3,0,0.5c0.1,1.4-0.9,2.7-2.4,2.9
			c-1.4,0.1-2.7-0.9-2.9-2.4C-24,387-24,386.8-24,386.7z M-19.9,386.7c0-1.2-0.5-1.9-1.5-1.9c-0.9,0-1.5,0.7-1.5,1.9
			c0,1.2,0.5,1.9,1.5,1.9S-19.9,387.9-19.9,386.7z"/>
		<path class="st1" d="M-17.3,383.9h1.1v0.9h0.1c0.3-0.6,0.9-1,1.6-1c1-0.1,1.9,0.7,1.9,1.7c0,0.1,0,0.3,0,0.4v3.6h-1.1v-3.3
			c0.1-0.6-0.3-1.2-0.9-1.3c-0.1,0-0.2,0-0.3,0c-0.7,0-1.3,0.5-1.3,1.2c0,0.1,0,0.1,0,0.2v3.2h-1.1V383.9z"/>
	</g>
</g>
</svg>
