<?xml version="1.0" encoding="utf-8"?>
<!-- Generator: Adobe Illustrator 19.1.0, SVG Export Plug-In . SVG Version: 6.00 Build 0)  -->
<svg version="1.1" id="Layer_1" xmlns="http://www.w3.org/2000/svg" xmlns:xlink="http://www.w3.org/1999/xlink" x="0px" y="0px"
	 viewBox="-163 369 285 55" style="enable-background:new -163 369 285 55;" xml:space="preserve">
<style type="text/css">
	.st0{fill:#1B1733;}
	.st1{fill:#FFFFFF;}
</style>
<path class="st0" d="M94.5,424h-230c-15.2,0-27.5-12.3-27.5-27.5l0,0c0-15.2,12.3-27.5,27.5-27.5h230c15.2,0,27.5,12.3,27.5,27.5
	l0,0C122,411.7,109.7,424,94.5,424z"/>
<g>
	<path class="st1" d="M-10,404.8h-12.4v-15.1H-10v4.1h-6.6v1.7h6.2v3.3h-6.2v1.9h6.6V404.8z M3.9,404.8H-8.5v-15.1H3.9v4.1h-6.6v1.7
		h6.2v3.3h-6.2v1.9h6.6V404.8z M49,404.8c-0.8-2.3-2-4.8-3.6-7.5c1.9-0.5,3-1.7,3-3.5c0-2.7-2.5-4-6.5-4h-8.2v15.1h5.9v-6.2
		c1.3,2.2,2.3,4.3,2.9,6.2H49V404.8z M39.5,396.4v-2.7h2c0.9,0,1.4,0.5,1.4,1.3s-0.5,1.3-1.4,1.3h-2V396.4z M32.2,404.8H19.8v-15.1
		h12.4v4.1h-6.6v1.7h6.2v3.3h-6.2v1.9h6.6V404.8z M5.3,393.8h6.1c-2.5,2.1-4.6,4.4-6.2,6.9v4.1h13.4v-4.1h-6.7
		c1.5-2.2,3.7-4.4,6.7-6.9v-4.1H5.4v4.1H5.3z M-38.9,389.7h7.6c4.7,0,8,3.1,8,7.5c0,4.4-3.3,7.5-8,7.5h-7.6V389.7z M-33,400.7h1.4
		c1.5,0,2.3-1,2.3-3.5s-0.8-3.5-2.3-3.5H-33V400.7z"/>
	<path class="st1" d="M-55.4,386.2c0.4-2.1,0.9-3.3,1.4-3.3l0,0c1.1,0,1.9,4.5,1.9,10s-0.9,10-1.9,10c-0.4,0-0.8-0.8-1.2-2
		c-0.5,4.7-1.6,7.9-2.8,7.9c-1,0-1.8-1.9-2.4-5c-0.4,5.8-1.4,9.9-2.6,9.9c-0.7,0-1.4-1.6-1.9-4.3c-0.6,5.5-2,9.3-3.6,9.3
		s-3-3.8-3.6-9.3c-0.5,2.6-1.2,4.3-1.9,4.3c-1.2,0-2.2-4.1-2.6-9.9c-0.6,3-1.4,5-2.4,5c-1.2,0-2.3-3.2-2.8-7.9c-0.3,1.3-0.7,2-1.2,2
		c-1.1,0-1.9-4.5-1.9-10s0.9-10,1.9-10c0.6,0,1.1,1.3,1.4,3.3c0.6-3.5,1.5-5.8,2.6-5.8c1.2,0,2.3,3.2,2.8,8c0.5-3.4,1.3-5.6,2.1-5.6
		c1.2,0,2.2,4.3,2.6,10.3c0.7-3.1,1.7-5,2.9-5s2.2,1.9,2.9,5c0.4-6,1.4-10.3,2.6-10.3c0.8,0,1.6,2.2,2.1,5.6c0.5-4.7,1.6-8,2.8-8
		C-56.9,380.4-56,382.7-55.4,386.2z M-87.5,391.9c0-2.5,0.5-4.5,1.1-4.5s1.1,2,1.1,4.5s-0.5,4.5-1.1,4.5S-87.5,394.4-87.5,391.9z
		 M-51.5,391.9c0-2.5,0.5-4.5,1.1-4.5s1.1,2,1.1,4.5s-0.5,4.5-1.1,4.5S-51.5,394.4-51.5,391.9z"/>
</g>
</svg>
