<?xml version="1.0" encoding="utf-8"?>
<!-- Generator: Adobe Illustrator 19.1.0, SVG Export Plug-In . SVG Version: 6.00 Build 0)  -->
<svg version="1.1" id="Layer_1" xmlns="http://www.w3.org/2000/svg" xmlns:xlink="http://www.w3.org/1999/xlink" x="0px" y="0px"
	 viewBox="-163 369 285 55" style="enable-background:new -163 369 285 55;" xml:space="preserve">
<style type="text/css">
	.st0{fill:#1B1733;}
	.st1{fill:#FFFFFF;}
</style>
<path class="st0" d="M94.5,424h-230c-15.2,0-27.5-12.3-27.5-27.5l0,0c0-15.2,12.3-27.5,27.5-27.5h230c15.2,0,27.5,12.3,27.5,27.5
	l0,0C122,411.7,109.7,424,94.5,424z"/>
<g>
	<g>
		<g id="XMLID_153_">
			<g id="XMLID_154_">
				<path id="XMLID_169_" class="st1" d="M6.3,390.4c3.3,0,6.1,2.7,6.1,6.1s-2.7,6.1-6.1,6.1c-3.3,0-6.1-2.7-6.1-6.1
					S3,390.4,6.3,390.4 M6.3,386.4c-5.6,0-10.1,4.5-10.1,10.1s4.5,10.1,10.1,10.1s10.1-4.5,10.1-10.1S11.9,386.4,6.3,386.4
					L6.3,386.4z"/>
				<path id="XMLID_166_" class="st1" d="M-56.3,387v1.6c-1.7-1.4-4-2.3-6.4-2.3c-5.6,0-10.1,4.5-10.1,10.1s4.5,10.1,10.1,10.1
					c2.4,0,4.6-0.9,6.4-2.3v1.8h3.7v-19H-56.3z M-62.5,402.8c-3.5,0-6.3-2.8-6.3-6.3s2.8-6.3,6.3-6.3s6.3,2.8,6.3,6.3
					S-59,402.8-62.5,402.8z"/>
				<path id="XMLID_163_" class="st1" d="M46.5,387v1.6c-1.7-1.4-4-2.3-6.4-2.3c-5.6,0-10.1,4.5-10.1,10.1s4.5,10.1,10.1,10.1
					c2.4,0,4.6-0.9,6.4-2.3v1.8h3.7v-19H46.5z M40.4,402.8c-3.5,0-6.3-2.8-6.3-6.3s2.8-6.3,6.3-6.3s6.3,2.8,6.3,6.3
					S43.9,402.8,40.4,402.8z"/>
				<path id="XMLID_162_" class="st1" d="M23,388.2c-2.2,1.4-4,3.8-4,8.2v9.6h4v-9.6l0,0c0-6.3,6.5-5.9,6.5-5.9v-4l0,0
					C29.5,386.4,26,386.3,23,388.2z"/>
				<path id="XMLID_161_" class="st1" d="M-33.4,388.4c-1.7-1.3-3.8-2-6.1-2c-2.3,0-4.4,0.8-6.1,2c-2.5,1.8-4,4.8-4,8.1v9.5h4v-1.4
					v-8.1c0-3.3,2.7-6.1,6.1-6.1c3.3,0,6.1,2.7,6.1,6.1v8.1v1.4h4v-9.5C-29.4,393.2-31,390.3-33.4,388.4z"/>
				<path id="XMLID_158_" class="st1" d="M-8.3,381c-1,0-1.9,0.8-1.9,1.9v5.8c-1.7-1.4-4-2.3-6.4-2.3c-5.6,0-10.1,4.5-10.1,10.1
					s4.5,10.1,10.1,10.1c2.4,0,4.6-0.9,6.4-2.3v1.7h3.7v-23.2V381H-8.3z M-16.4,402.8c-3.5,0-6.3-2.8-6.3-6.3s2.8-6.3,6.3-6.3
					s6.3,2.8,6.3,6.3C-10.1,400-12.9,402.8-16.4,402.8z"/>
				<path id="XMLID_155_" class="st1" d="M-85.2,386.4c-2.4,0-4.6,0.9-6.4,2.3V387h-3.7v23.1v1.9h1.9c1,0,1.9-0.8,1.9-1.9v-5.8
					c1.7,1.4,4,2.3,6.4,2.3c5.6,0,10.1-4.5,10.1-10.1C-75.1,390.9-79.7,386.4-85.2,386.4z M-85.5,402.8c-3.5,0-6.3-2.8-6.3-6.3
					s2.8-6.3,6.3-6.3s6.3,2.8,6.3,6.3S-82,402.8-85.5,402.8z"/>
			</g>
		</g>
		<g>
			<path class="st1" d="M54,387c-1,0-1.9-0.8-1.9-1.9c0-1,0.8-1.9,1.9-1.9c1,0,1.9,0.8,1.9,1.9C55.8,386.2,55,387,54,387z M54,383.5
				c-0.9,0-1.6,0.7-1.6,1.6s0.7,1.6,1.6,1.6c0.9,0,1.6-0.7,1.6-1.6C55.6,384.3,54.9,383.5,54,383.5z M54.5,386.2l-0.6-0.8h-0.4v0.8
				h-0.3v-2.1h0.9c0.4,0,0.6,0.3,0.6,0.6c0,0.5-0.4,0.6-0.5,0.6l0.6,0.9H54.5z M54.2,384.3h-0.6v0.8h0.6c0.2,0,0.4-0.2,0.4-0.4
				C54.5,384.5,54.3,384.3,54.2,384.3z"/>
		</g>
	</g>
</g>
</svg>
