<?xml version="1.0" encoding="utf-8"?>
<!-- Generator: Adobe Illustrator 19.1.0, SVG Export Plug-In . SVG Version: 6.00 Build 0)  -->
<svg version="1.1" id="Layer_1" xmlns="http://www.w3.org/2000/svg" xmlns:xlink="http://www.w3.org/1999/xlink" x="0px" y="0px"
	 viewBox="-163 369 285 55" style="enable-background:new -163 369 285 55;" xml:space="preserve">
<style type="text/css">
	.st0{fill:#1B1733;}
	.st1{fill:#FFFFFF;}
</style>
<path class="st0" d="M94.5,424h-230c-15.2,0-27.5-12.3-27.5-27.5l0,0c0-15.2,12.3-27.5,27.5-27.5h230c15.2,0,27.5,12.3,27.5,27.5
	l0,0C122,411.7,109.7,424,94.5,424z"/>
<g>
	<path class="st1" d="M-49.1,397.1c0,10-8.2,18.3-18.5,18c-9.6-0.3-17.7-8.2-17.5-18.5c0.2-9.7,8.2-17.8,18.6-17.5
		C-56.9,379.4-49.1,387.3-49.1,397.1z M-72.1,389.1c-0.4,0-0.8,0-1.2,0.1c-1.5,0.1-2.9,0.3-4.4,0.6c-0.3,0.1-0.6,0.1-0.8,0.2
		c-0.8,0.4-1.1,1.3-0.8,2.1c0.3,0.8,1.1,1.3,1.9,1.1c2-0.4,4-0.6,6.1-0.6c1.1,0,2.1,0,3.2,0.1c2.4,0.2,4.8,0.7,7.2,1.5
		c1.7,0.5,3.3,1.2,4.9,2c0.8,0.4,1.8,0.1,2.3-0.7c0.4-0.8,0.1-1.9-0.7-2.3c-0.5-0.3-1-0.5-1.5-0.8c-2.7-1.2-5.5-2.1-8.5-2.7
		c-2.1-0.4-4.1-0.6-6.2-0.6C-71.2,389.1-71.7,389.1-72.1,389.1z M-71,395.4c-0.7,0-1.5,0-2.2,0.1c-1.4,0.1-2.7,0.3-4.1,0.6
		c-0.7,0.2-1.2,0.8-1.1,1.6c0.1,0.7,0.7,1.2,1.5,1.2c0.3,0,0.6-0.1,0.9-0.2c1.5-0.3,3.1-0.4,4.6-0.5c1,0,2,0,3,0.1
		c1.9,0.2,3.8,0.6,5.6,1.2c1.6,0.5,3,1.2,4.5,1.9c0.7,0.4,1.5,0.1,1.9-0.6c0.3-0.7,0.1-1.5-0.6-1.9c-1.7-0.9-3.5-1.7-5.3-2.2
		C-65.2,395.8-68.1,395.4-71,395.4z M-70.9,400.9c-0.9,0-1.7,0-2.4,0.1c-1.1,0.1-2.2,0.3-3.3,0.5c-0.6,0.1-1,0.7-0.9,1.3
		c0.1,0.6,0.7,0.9,1.3,0.8c1.6-0.4,3.2-0.6,4.9-0.6c0.7,0,1.5,0,2.2,0.1c1.8,0.2,3.6,0.6,5.3,1.2c1.2,0.4,2.3,0.9,3.4,1.6
		c0.2,0.1,0.3,0.1,0.5,0.1c0.5,0,0.9-0.4,1-0.8c0.1-0.5-0.1-0.9-0.6-1.2c-1.4-0.8-2.9-1.5-4.5-2C-66.1,401.3-68.5,401-70.9,400.9z"
		/>
	<path class="st1" d="M34.7,401.3c0.2-0.6,0.5-1.2,0.7-1.7c0.7-1.6,1.3-3.2,2-4.8c0.2-0.5,0.4-1.1,0.7-1.6c0.1-0.2,0.1-0.2,0.3-0.2
		c1.1,0,2.2,0,3.2,0c0.3,0,0.3,0.1,0.2,0.3c-1,2.2-1.9,4.4-2.9,6.5c-0.8,1.9-1.7,3.8-2.5,5.8c-0.7,1.5-1.3,3-2,4.5
		c-0.1,0.2-0.2,0.2-0.4,0.2c-1.2,0-2.3,0-3.5,0c-0.3,0-0.3-0.1-0.2-0.3c0.7-1.6,1.5-3.2,2.2-4.8c0-0.1,0-0.2,0-0.2
		c-0.9-1.9-1.7-3.7-2.6-5.6c-0.5-1.1-1-2.2-1.5-3.3c-0.1-0.1-0.1-0.2-0.2-0.2c-0.8,0-1.7,0-2.5,0c-0.2,0-0.2,0-0.2,0.2
		c0,3.2,0,6.5,0,9.7c0,0.3,0,0.3-0.3,0.3c-1.1,0-2.1,0-3.2,0c-0.3,0-0.3,0-0.3-0.3c0-3.2,0-6.4,0-9.7c0-0.2,0-0.2-0.2-0.2
		c-0.7,0-1.3,0-2,0c-0.2,0-0.3,0-0.3-0.3c0-0.8,0-1.7,0-2.5c0-0.3,0-0.3,0.3-0.3c0.6,0,1.3,0,1.9,0c0.2,0,0.2-0.1,0.2-0.2
		c0-0.7,0-1.4,0.1-2.1c0.3-1.6,1.1-2.8,2.7-3.4c1.1-0.4,2.1-0.3,3.2,0c0.3,0.1,0.6,0.2,0.8,0.3c0.1,0.1,0.2,0.1,0.2,0.3
		c0.4,0.9,0.8,1.8,1.1,2.8c0,0.1,0.1,0.1,0,0.2c-0.1,0.1-0.2,0-0.2,0c-0.5-0.3-1.1-0.6-1.7-0.7c-0.7-0.1-1.3,0-1.9,0.5
		c-0.4,0.3-0.6,0.8-0.7,1.4c0,0.3,0,0.6,0,0.9c0,0.2,0,0.2,0.2,0.2c1.7,0,3.5,0,5.2,0c0.2,0,0.3,0.1,0.4,0.2
		c0.7,1.6,1.4,3.3,2.1,4.9C33.8,399.2,34.3,400.3,34.7,401.3z"/>
	<path class="st1" d="M-23,395.7c0.4-0.6,0.8-1.1,1.2-1.6c0.9-0.9,2.1-1.4,3.4-1.4c1.4,0,2.6,0.3,3.7,1.2c1.1,0.9,1.7,2,2.1,3.3
		c0.5,1.9,0.4,3.7-0.3,5.5c-0.7,1.7-2,3-3.8,3.4s-3.4,0.1-4.9-1.1c-0.5-0.4-0.8-0.9-1.2-1.4c0-0.1-0.1-0.2-0.1-0.2
		c0,0.1,0,0.1,0,0.2c0,2.1,0,4.2,0,6.4c0,0.3,0,0.3-0.3,0.3c-1,0-2,0-3,0c-0.3,0-0.4,0-0.4-0.4c0-5.6,0-11.2,0-16.7
		c0-0.3,0-0.3,0.3-0.3c1,0,2.1,0,3.1,0c0.3,0,0.3,0,0.3,0.3C-23,394.1-23,394.9-23,395.7z M-16.1,399.6c0-0.5-0.1-0.9-0.2-1.4
		c-0.2-0.8-0.7-1.5-1.5-1.9c-1.3-0.7-2.9-0.4-4,0.8c-0.6,0.7-1,1.4-1.3,2.3c0,0.1,0,0.2,0,0.3c0.3,1,0.9,1.8,1.6,2.5
		c0.7,0.6,1.5,1,2.4,1s1.6-0.4,2.1-1.1C-16.3,401.4-16.1,400.5-16.1,399.6z"/>
	<path class="st1" d="M-41.6,402.1c0-0.6,0-1.2,0-1.8c0-0.1,0-0.2,0.1-0.2s0.2,0,0.2,0.1c1.6,1.8,3.6,2.7,5.9,3
		c0.8,0.1,1.7,0,2.5-0.3c0.9-0.3,1.2-1.1,1.2-2c0-0.8-0.5-1.2-1.1-1.5c-0.7-0.4-1.5-0.6-2.3-0.8c-1.2-0.3-2.4-0.6-3.5-1.1
		c-0.9-0.4-1.6-0.9-2.2-1.7c-0.5-0.7-0.7-1.5-0.8-2.3c-0.1-1.2,0.2-2.4,1-3.4c0.7-0.9,1.7-1.5,2.8-2c1.3-0.5,2.6-0.6,3.9-0.5
		c1.4,0.1,2.7,0.4,3.9,0.9c0.4,0.2,0.7,0.4,1.1,0.6c0.1,0.1,0.2,0.2,0.2,0.4c0,1.1,0,2.1,0,3.2c0,0.1,0,0.2-0.1,0.3s-0.2,0-0.3-0.1
		c-1.2-1-2.6-1.6-4.2-1.9c-1.1-0.2-2.1-0.1-3.1,0.3c-0.5,0.2-1,0.5-1.2,1.1c-0.3,0.8-0.1,1.4,0.8,1.8c0.7,0.3,1.4,0.5,2,0.7
		c1.2,0.4,2.5,0.7,3.6,1.2c0.9,0.4,1.8,1,2.4,1.8c0.6,0.7,0.8,1.6,0.9,2.5c0.1,1-0.1,1.9-0.5,2.8c-0.5,1.1-1.3,1.9-2.3,2.4
		c-1,0.6-2.2,0.9-3.4,0.9c-1.9,0.1-3.7-0.2-5.4-0.9c-0.7-0.3-1.4-0.7-1.9-1.3c-0.1-0.1-0.2-0.3-0.2-0.4
		C-41.6,403.3-41.6,402.7-41.6,402.1z"/>
	<path class="st1" d="M-4.2,392.7c1.3,0,2.5,0.2,3.6,0.8c1.8,0.9,3,2.4,3.5,4.4c0.5,2.3,0.1,4.4-1.5,6.3c-1.1,1.3-2.6,2-4.3,2.3
		c-1.3,0.2-2.7,0.1-4-0.3c-2.3-0.8-3.9-2.4-4.4-4.8c-0.5-2-0.2-3.8,0.9-5.5c0.9-1.4,2.3-2.3,3.9-2.8C-5.6,392.8-4.8,392.7-4.2,392.7
		z M-4.1,403.3c1.3,0,2.3-0.5,3-1.7c0.4-0.7,0.6-1.4,0.5-2.2c0-0.8-0.3-1.6-0.8-2.2c-0.8-1-1.9-1.3-3.1-1.2
		c-1.1,0.1-1.9,0.6-2.5,1.6c-0.5,0.7-0.6,1.5-0.6,2.4C-7.4,401.9-6,403.3-4.1,403.3z"/>
	<path class="st1" d="M5.8,399.1c0-1,0-1.9,0-2.9c0-0.1,0-0.2-0.2-0.2c-0.7,0-1.3,0-2,0c-0.3,0-0.3,0-0.3-0.3c0-0.4,0-0.9,0-1.3
		c0-0.2,0.1-0.3,0.2-0.4c1.9-1.5,3.8-3,5.7-4.5c0.1-0.1,0.2-0.2,0.3-0.2c0.1,0.1,0.1,0.3,0.1,0.4c0,1,0,2,0,3c0,0.2,0,0.2,0.2,0.2
		c1,0,2,0,3,0c0.3,0,0.3,0,0.3,0.3c0,0.8,0,1.6,0,2.5c0,0.2,0,0.3-0.3,0.3c-1,0-2,0-3,0c-0.2,0-0.2,0-0.2,0.2c0,1.7,0,3.4,0,5.1
		c0,0.5,0.1,1,0.5,1.4c0.3,0.3,0.7,0.5,1.1,0.5c0.6,0,1.1-0.1,1.6-0.4c0.2-0.1,0.3-0.1,0.3,0.2c0,0.8,0,1.6,0,2.4
		c0,0.2-0.1,0.3-0.2,0.4c-0.6,0.3-1.3,0.5-2.1,0.6c-0.9,0.1-1.8,0-2.7-0.3c-1.1-0.5-1.8-1.3-2.1-2.4c-0.2-0.6-0.3-1.3-0.3-1.9
		C5.8,400.9,5.8,400,5.8,399.1z"/>
	<path class="st1" d="M14.3,399.6c0-2.1,0-4.2,0-6.3c0-0.3,0-0.3,0.3-0.3c1.1,0,2.1,0,3.2,0c0.3,0,0.3,0,0.3,0.3c0,0.8,0,1.6,0,2.4
		c0,3.4,0,6.7,0,10.1c0,0.4,0,0.4-0.4,0.4c-1,0-2.1,0-3.1,0c-0.3,0-0.3,0-0.3-0.3C14.3,403.8,14.3,401.7,14.3,399.6z"/>
	<path class="st1" d="M18.4,389.1c0,1.1-0.8,2-1.9,2.1c-0.7,0.1-1.4-0.1-1.9-0.5c-0.9-0.8-0.9-2.4,0.1-3.2c0.9-0.7,2.3-0.6,3.1,0.2
		C18.2,388,18.4,388.5,18.4,389.1z"/>
	<path class="st1" d="M42.5,394.8c0-1,0.7-2,2-2c1.2,0,2,0.9,2,2c0,1.2-0.9,2-2.1,2C43.3,396.8,42.4,395.9,42.5,394.8z M46.1,394.8
		c0-1-0.7-1.6-1.6-1.6c-1,0-1.7,0.7-1.7,1.6c0,1,0.7,1.6,1.6,1.6C45.5,396.4,46.1,395.8,46.1,394.8z"/>
	<path class="st1" d="M45.5,395.7L45.5,395.7c-0.4,0.1-0.6,0-0.8-0.3c-0.1-0.1-0.2-0.2-0.2-0.3c-0.1-0.1-0.1-0.1-0.2-0.1
		c-0.1,0,0,0.1-0.1,0.1c0,0.2,0,0.3,0,0.5c0,0.1,0,0.2-0.1,0.1c-0.1,0-0.1,0-0.2,0c-0.1,0-0.1,0-0.1-0.1c0-0.6,0-1.1,0-1.7
		c0-0.1,0-0.1,0.1-0.1c0.4,0,0.7,0,1.1,0c0.3,0.1,0.5,0.2,0.5,0.4c0,0.3-0.1,0.5-0.4,0.6c-0.1,0-0.1,0.1,0,0.1
		C45.1,395.2,45.3,395.4,45.5,395.7z M44.5,394.2c-0.3,0-0.3,0-0.3,0.3v0.1c0,0,0,0.1,0.1,0.1c0.2,0,0.4,0,0.6,0
		c0.1,0,0.1-0.1,0.1-0.2s0-0.1-0.1-0.2C44.7,394.2,44.6,394.2,44.5,394.2z"/>
</g>
</svg>
