<?xml version="1.0" encoding="utf-8"?>
<!-- Generator: Adobe Illustrator 19.1.0, SVG Export Plug-In . SVG Version: 6.00 Build 0)  -->
<svg version="1.1" id="Layer_1" xmlns="http://www.w3.org/2000/svg" xmlns:xlink="http://www.w3.org/1999/xlink" x="0px" y="0px"
	 viewBox="-163 369 285 55" style="enable-background:new -163 369 285 55;" xml:space="preserve">
<style type="text/css">
	.st0{fill:#1B1733;}
	.st1{fill:#FFFFFF;}
</style>
<path class="st0" d="M94.5,424h-230c-15.2,0-27.5-12.3-27.5-27.5l0,0c0-15.2,12.3-27.5,27.5-27.5h230c15.2,0,27.5,12.3,27.5,27.5
	l0,0C122,411.7,109.7,424,94.5,424z"/>
<g>
	<g>
		<g>
			<path class="st1" d="M-42.6,407.4H-47v-15.6h-5.7V388h15.8v3.8h-5.7C-42.6,391.8-42.6,407.4-42.6,407.4z"/>
			<path class="st1" d="M-19.3,407.4h-4.4V388h4.4V407.4z"/>
			<path class="st1" d="M58.7,403.5h7.6v3.8H54.2V388h4.4v15.5H58.7z"/>
		</g>
		<path class="st1" d="M-4.6,388h7.2c5.3,0,10.5,2.8,10.5,9.6c0,6.4-5.2,9.7-10.3,9.7h-7.4V388z M-0.3,403.6h2.7
			c3.7,0,6.1-2.3,6.1-6c0-3.5-2.5-5.8-6-5.8h-2.8V403.6z"/>
		<path class="st1" d="M37.6,407.4h4.9l-8-19.4H30l-8.1,19.4h4.7l1.4-3.8h8.2L37.6,407.4z M29.3,400.1l2.9-7.6l2.9,7.6H29.3z"/>
	</g>
	<g>
		
			<rect x="-91.9" y="386.8" transform="matrix(-0.7071 0.7071 -0.7071 -0.7071 126.2982 729.3775)" class="st1" width="8" height="8"/>
		
			<rect x="-91.9" y="398.2" transform="matrix(-0.7071 0.7071 -0.7071 -0.7071 134.4291 748.7689)" class="st1" width="8" height="8"/>
		
			<rect x="-103.2" y="386.8" transform="matrix(-0.7071 0.7071 -0.7071 -0.7071 106.9759 737.3369)" class="st1" width="8" height="8"/>
		
			<rect x="-80.5" y="386.8" transform="matrix(-0.7071 0.7071 -0.7071 -0.7071 145.6903 721.2478)" class="st1" width="8" height="8"/>
	</g>
</g>
</svg>
