<?xml version="1.0" encoding="utf-8"?>
<!-- Generator: Adobe Illustrator 19.1.0, SVG Export Plug-In . SVG Version: 6.00 Build 0)  -->
<svg version="1.1" id="Layer_1" xmlns="http://www.w3.org/2000/svg" xmlns:xlink="http://www.w3.org/1999/xlink" x="0px" y="0px"
	 viewBox="0 0 324.3 204.4" style="enable-background:new 0 0 324.3 204.4;" xml:space="preserve">
<style type="text/css">
	.st0{fill:#FFFFFF;}
	.st1{fill:#FFBDF5;}
</style>
<g>
	<path class="st0" d="M16.1,12.2h-0.4c-0.9-3.4-1.5-4.1-4.2-4.1v12.2c0,1.1,0.2,1.5,0.9,1.6v0.2c-0.7,0-1.7-0.2-2.8-0.2
		c-1,0-2,0.2-2.7,0.2v-0.2c0.7-0.1,0.9-0.5,0.9-1.6V8.1c-2.6,0-3.3,0.6-4.2,4.1H3.3l0.7-4.6h11.5L16.1,12.2z"/>
	<path class="st0" d="M21.2,14.8c0-1.7-0.4-2.7-1.3-2.7c-1,0-1.2,1.8-0.5,2.9c-0.2,0.7-1.1,1.2-1.9,1.2c-1.1,0-1.8-0.7-1.8-1.8
		c0-1.6,2.1-2.8,4.4-2.8c3.1,0,4.6,1.6,4.6,4.7v4c0,1.1,0.2,1.6,0.9,1.7v0.2H23c-0.7,0-1.2-0.3-1.5-0.9c-0.3,0.7-1.1,1.1-2.3,1.1
		c-2.6,0-3.9-0.8-3.9-2.5C15.2,16.4,20.3,17.1,21.2,14.8 M20.1,21.8c0.6,0,1.1-0.9,1.1-1.8v-4.5c-0.7,1.7-2.3,1.4-2.3,4.3
		C19,21.1,19.5,21.8,20.1,21.8"/>
	<path class="st0" d="M30.5,20.3c0,1.1,0.2,1.5,0.9,1.6v0.2c-0.7,0-1.7-0.2-2.7-0.2s-1.9,0.2-2.7,0.2v-0.2c0.7-0.1,0.9-0.5,0.9-1.6
		v-5.6c0-1.1-0.2-1.5-0.9-1.6v-0.2c1.5,0,3.7-0.7,4.2-1.2h0.2v1.8c0.6-1.1,2.1-1.8,3.5-1.8c2.5,0,3.8,1.7,3.8,5v3.8
		c0,1.1,0.2,1.5,0.9,1.6v0.2C38,22.1,37.1,22,36,22c-1,0-1.9,0.2-2.7,0.2v-0.2c0.7-0.1,0.9-0.5,0.9-1.6v-4.4c0-2.2-0.5-3.3-1.5-3.3
		c-0.9,0-1.8,0.6-2.3,1.7V20.3z"/>
	<path class="st0" d="M48.4,11.5c1.5,0,2.6,0.5,3.2,1.5V9.9c0-1.1-0.2-1.5-0.9-1.6V8c1.4,0,3.7-1,4.2-1.7h0.2v13.9
		c0,1.1,0.2,1.6,0.9,1.7v0.2h-2.7c-0.9,0-1.5-0.5-1.7-1.4c-0.6,1.1-1.6,1.6-3,1.6c-2.7,0-4.4-2.2-4.4-5.8
		C44.3,13.5,45.9,11.5,48.4,11.5 M49.7,21.4c1.2,0,1.9-1.7,1.9-4.5c0-2.7-0.8-4.4-1.9-4.4c-1.1,0-1.6,1.5-1.6,4.4
		C48.1,19.7,48.8,21.4,49.7,21.4"/>
	<path class="st0" d="M60.9,20.3c0,1.1,0.2,1.5,0.9,1.6v0.2c-0.7,0-1.7-0.2-2.7-0.2c-1,0-1.9,0.2-2.7,0.2v-0.2
		c0.7-0.1,0.9-0.5,0.9-1.6v-5.7c0-1.1-0.2-1.5-0.9-1.6v-0.2c1.5,0,3.7-0.7,4.2-1.2h0.2V20.3z M59.1,6.4c1.2,0,2,0.8,2,2
		c0,1.2-0.8,2-2,2c-1.2,0-2-0.8-2-2C57.1,7.1,57.9,6.4,59.1,6.4"/>
	<path class="st0" d="M72.1,14.4c0,1.1-0.7,1.8-1.8,1.8c-0.9,0-1.7-0.5-1.9-1.2c0.7-1.2,0.9-2.9-0.3-2.9c-1.2,0-2.1,1.8-2.1,4.6
		c0,2.8,1.2,4.5,3.1,4.5c1.4,0,2.7-0.8,3.6-2.3l0.3,0.2c-1.5,2.3-2.8,3.2-5.1,3.2c-3.4,0-5.6-2.1-5.6-5.4c0-3.1,2.5-5.4,5.7-5.4
		C70.5,11.5,72.1,12.6,72.1,14.4"/>
	<path class="st0" d="M77.7,20.3c0,1.1,0.2,1.5,0.9,1.6v0.2C78,22.1,77,22,76,22c-1,0-1.9,0.2-2.7,0.2v-0.2c0.7-0.1,0.9-0.5,0.9-1.6
		v-5.7c0-1.1-0.2-1.5-0.9-1.6v-0.2c1.5,0,3.7-0.7,4.2-1.2h0.2V20.3z M76,6.4c1.2,0,2,0.8,2,2c0,1.2-0.8,2-2,2c-1.2,0-2-0.8-2-2
		C74,7.1,74.8,6.4,76,6.4"/>
	<path class="st0" d="M83.1,18.9c0.5,1.5,1.4,2.3,2.8,2.3c1.2,0,2.5-1,3.2-2.3l0.3,0.2c-1.2,2.2-2.7,3.2-4.7,3.2
		c-3.4,0-5.6-2.1-5.6-5.4c0-3.2,2.4-5.4,5.7-5.4c2.7,0,4.2,1.3,4.2,3.4C89,17.2,87,18.6,83.1,18.9 M86,14.7c0-1.6-0.3-2.6-1.2-2.6
		c-1.2,0-2,1.9-2,4.6c0,0.6,0.1,1.2,0.2,1.7C85,18.1,86,16.7,86,14.7"/>
	<path class="st0" d="M94.2,20.3c0,1.1,0.2,1.5,0.9,1.6v0.2c-0.7,0-1.7-0.2-2.7-0.2c-1,0-1.9,0.2-2.7,0.2v-0.2
		c0.7-0.1,0.9-0.5,0.9-1.6v-5.6c0-1.1-0.2-1.5-0.9-1.6v-0.2c1.5,0,3.7-0.7,4.2-1.2h0.2v1.8c0.6-1.1,2.1-1.8,3.5-1.8
		c2.5,0,3.8,1.7,3.8,5v3.8c0,1.1,0.2,1.5,0.9,1.6v0.2c-0.7,0-1.7-0.2-2.7-0.2c-1,0-1.9,0.2-2.7,0.2v-0.2c0.7-0.1,0.9-0.5,0.9-1.6
		v-4.4c0-2.2-0.5-3.3-1.5-3.3c-0.9,0-1.8,0.6-2.3,1.7V20.3z"/>
	<path class="st0" d="M113.8,20.2c0,1.1,0.2,1.6,0.9,1.7v0.2H112c-0.9,0-1.5-0.5-1.7-1.4c-0.6,1.1-1.6,1.6-3,1.6
		c-2.7,0-4.4-2.2-4.4-5.8c0-3.1,1.6-5,4.1-5c1.5,0,2.6,0.5,3.2,1.5V7.4c0-2.2-0.6-3.3-1.8-3.3c-2.9,0-5.8,5.8-10.9,5.8
		c-6,0-5.8-7.1-1.5-7.1c1.6,0,2.7,1.1,2.5,2.4c-1,0-1.4,2,1.1,2c4.1,0,5.2-3.7,9.4-3.7c3,0,4.8,2.1,4.8,5.5V20.2z M108.4,21.4
		c1.2,0,1.9-1.7,1.9-4.5c0-2.7-0.8-4.4-1.9-4.4c-1.1,0-1.6,1.5-1.6,4.4C106.7,19.7,107.4,21.4,108.4,21.4"/>
	<path class="st0" d="M120.4,11.5c3.1,0,5.2,2.2,5.2,5.4c0,3.2-2.1,5.4-5.2,5.4c-3.1,0-5.2-2.2-5.2-5.4
		C115.1,13.7,117.2,11.5,120.4,11.5 M120.4,12.1c-1,0-1.5,1.6-1.5,4.9c0,3.2,0.5,4.9,1.5,4.9c1,0,1.5-1.6,1.5-4.9
		C121.9,13.7,121.4,12.1,120.4,12.1"/>
	<path class="st0" d="M138.7,11.5c0.5,0.6,2.8,1.7,4.2,1.7v0.2c-0.7,0.1-0.9,0.5-0.9,1.6v10.4c0,1.1,0.2,1.5,0.9,1.6v0.2
		c-0.7,0-1.7-0.2-2.7-0.2s-1.9,0.2-2.7,0.2v-0.2c0.7-0.1,0.9-0.5,0.9-1.6v-4.6c-0.6,1-1.6,1.5-2.9,1.5c-2.7,0-4.4-2.2-4.4-5.8
		c0-3.1,1.6-5,4.1-5c1.5,0,2.6,0.5,3.2,1.5v-1.5H138.7z M136.6,21.4c1.2,0,1.9-1.7,1.9-4.5c0-2.7-0.8-4.4-1.9-4.4
		c-1.1,0-1.6,1.5-1.6,4.4C135,19.7,135.6,21.4,136.6,21.4"/>
	<path class="st0" d="M154.9,20.2c0,1.1,0.2,1.6,0.9,1.7v0.2h-2.7c-1.1,0-1.7-0.7-1.7-1.9v0.1c-0.6,1.1-1.9,1.8-3.3,1.8
		c-2.5,0-3.8-1.6-3.8-4.4v-3.1c0-1.1-0.2-1.5-0.9-1.6v-0.2c1.5,0,3.7-0.7,4.2-1.2h0.2v6.2c0,2.2,0.5,3.3,1.5,3.3
		c0.9,0,1.6-0.6,2.1-1.7v-4.6c0-1.1-0.2-1.5-0.9-1.6v-0.2c1.5,0,3.7-0.7,4.2-1.2h0.2V20.2z"/>
	<path class="st0" d="M156.2,16.9c0-3.2,2.4-5.4,5.7-5.4c2.7,0,4.4,1.3,4.4,3.4c0,2.2-2.2,3.6-6,3.9c0.5,1.6,1.6,2.3,3.4,2.3
		c3.3,0,6-2.5,6-5.7c0-1.3-0.9-2-2.2-1.9c-0.1-0.2-0.3-0.5-0.3-1c0-1,0.8-1.7,2-1.7c1.5,0,2.5,1.2,2.5,3.2c0,4.9-3.6,8.1-9.1,8.1
		C158.5,22.3,156.2,20.4,156.2,16.9 M163.3,14.7c0-1.7-0.5-2.6-1.4-2.6c-1.2,0-2,1.9-2,4.6c0,0.6,0.1,1.2,0.2,1.7
		C162.1,18.1,163.3,16.7,163.3,14.7"/>
	<path class="st0" d="M43.7,31v-0.8c5.8,0,8,0.7,13.7,0.7c3.9,0,10.8-0.7,13.7-0.7V31c-2.9,0.5-3.7,2.3-2.5,6.5l13,44.5l13.6-45
		c0.9-3-0.2-5.6-2.5-6v-0.8c2.9,0,6.8,0.7,10.8,0.7c4,0,8-0.7,10.9-0.7V31c-2.8,0.5-3.7,2.1-3.7,6.5v42.8c0,4.4,0.9,6,3.7,6.5v0.8
		c-2.9,0-6.9-0.7-10.9-0.7c-4,0-8,0.7-10.8,0.7v-0.8c2.9-0.5,3.7-2.1,3.7-6.3V40.3L82.1,87.6l-13.9,0.1L55.4,43.5
		c-0.7-2.6-1.5-4.7-2.2-6.4v29.2c0,12.3,2.8,19.9,7.5,20.5v0.8c-2.8,0-4.5-0.4-8.5-0.4c-4,0-5.7,0.4-8.5,0.4v-0.8
		c4.8-0.6,7.5-8.1,7.5-20.5V51.5C51.1,39.1,48.4,31.6,43.7,31"/>
	<path class="st0" d="M159.9,80c0,4.4,0.9,6.3,3.7,6.8v0.8H153c-4.3,0-6.8-2.9-6.8-7.6v0.3c-2.3,4.3-7.4,7.3-13,7.3
		c-9.7,0-15.1-6.2-15.1-17.4V58c0-4.3-0.8-6-3.7-6.5v-0.8c5.9,0,14.8-2.6,16.6-4.9h0.8v24.5c0,8.5,2.1,12.9,6.1,12.9
		c3.4,0,6.5-2.3,8.3-6.8V58c0-4.3-0.8-6-3.7-6.5v-0.8c5.9,0,14.8-2.6,16.6-4.9h0.8V80z"/>
	<path class="st0" d="M182.6,80.3c0,4.4,0.9,6,3.7,6.5v0.8c-2.9,0-6.6-0.7-10.6-0.7c-4,0-7.6,0.7-10.5,0.7v-0.8
		c2.9-0.5,3.7-2.1,3.7-6.5V58c0-4.3-0.8-6-3.7-6.5v-0.8c5.9,0,14.8-2.6,16.6-4.9h0.8v7c2.5-4.3,8.2-7.3,13.8-7.3
		c10,0,15.1,6.6,15.1,19.8v15.1c0,4.4,0.9,6,3.7,6.5v0.8c-2.9,0-6.6-0.7-10.6-0.7c-4,0-7.6,0.7-10.5,0.7v-0.8
		c2.9-0.5,3.7-2.1,3.7-6.5V62.8c0-8.5-2.1-12.9-6.1-12.9c-3.4,0-7,2.3-9.1,6.8V80.3z"/>
	<path class="st0" d="M259.9,80c0,4.4,0.9,6.3,3.7,6.8v0.8H253c-3.6,0-6-2.1-6.6-5.5c-2.5,4.2-6.4,6.3-11.8,6.3
		c-10.7,0-17.2-8.8-17.2-23.1c0-12.1,6.2-19.6,16.1-19.6c6,0,10.2,1.9,12.8,6V29.4c0-8.5-2.5-13.1-7.2-13.1
		c-11.6,0-23.1,22.9-43.1,22.9c-23.6,0-22.8-28.1-5.9-28.1c6.4,0,10.8,4.3,9.7,9.4c-3.8,0-5.3,8,4.2,8c16.3,0,20.5-14.7,37-14.7
		c11.8,0,19,8.2,19,21.7V80z M238.5,84.7c4.8,0,7.6-6.6,7.6-17.7c0-10.5-3-17.6-7.6-17.6c-4.3,0-6.5,6-6.5,17.6
		C232.1,78.1,234.8,84.7,238.5,84.7"/>
	<path class="st0" d="M285.9,45.8c12.4,0,20.7,8.6,20.7,21.4c0,12.7-8.3,21.3-20.7,21.3c-12.4,0-20.7-8.5-20.7-21.3
		C265.2,54.4,273.5,45.8,285.9,45.8 M286,47.8c-4,0-6,6.5-6,19.4c0,12.8,2,19.2,6,19.2c3.9,0,5.8-6.3,5.8-19.2
		C291.8,54.5,289.8,47.8,286,47.8"/>
	<path class="st0" d="M79.2,112.7c-4.7,0-7.9-1.8-7.9-4.4c0-1.5,1.1-2.4,2.7-2.4c1.5,0,2.6,0.8,2.9,1.9c-1.6,1.9-0.6,4,1.9,4
		c1.6,0,2.8-1,2.8-2.4c0-4-9.7-3.6-9.7-8.7c0-2.7,2.8-4.3,7.3-4.3c4.2,0,7.3,1.9,7.3,4.2c0,1.1-0.9,1.8-2.5,1.8
		c-1.1,0-2.3-0.6-2.5-1.2c1.1-2,0-4-1.9-4c-1.2,0-2.1,0.9-2.1,2.2c0,3.7,9.7,3.2,9.7,8.8C87.2,110.9,84.1,112.7,79.2,112.7"/>
	<path class="st0" d="M94.2,107.4c0.7,2.2,2.1,3.4,4.1,3.4c1.8,0,3.8-1.4,4.7-3.4l0.5,0.4c-1.8,3.3-4,4.8-7,4.8
		c-5.2,0-8.4-3.1-8.4-8.1c0-4.7,3.5-8.1,8.5-8.1c4,0,6.3,2,6.3,5.1C102.9,104.8,99.9,106.9,94.2,107.4 M98.5,101.1
		c0-2.5-0.4-3.9-1.8-3.9c-1.8,0-2.9,2.9-2.9,6.9c0,0.9,0.1,1.8,0.2,2.6C96.9,106.2,98.5,104.1,98.5,101.1"/>
	<path class="st0" d="M124.3,102.2c1-2.7,0.4-4.9-0.9-5.2v-0.3c0.8,0,1.4,0.1,2.5,0.1c1.1,0,1.7-0.1,2.5-0.1V97
		c-1.4,0.3-2.2,2.5-3.4,5.7l-2.8,7.5c-0.4,1-0.2,1.6,0.5,1.7v0.3c-1.1,0-2.4-0.2-3.7-0.2c-1.3,0-2.9,0.2-3.7,0.2v-0.3
		c0.9-0.1,1.1-0.6,0.7-1.7l-3.9-10.2c-0.8-2-1.6-2.9-2.7-3v-0.3c1.3,0,2.7,0.2,4.5,0.2c1.8,0,3.4-0.2,4.5-0.2V97
		c-0.9,0.1-1.2,1.1-0.6,2.6l3.7,10.3L124.3,102.2z"/>
	<path class="st0" d="M136,101.2c0-2.5-0.7-4-2-4c-1.5,0-1.8,2.6-0.7,4.4c-0.3,1-1.6,1.8-2.9,1.8c-1.6,0-2.7-1.1-2.7-2.7
		c0-2.5,3.1-4.3,6.6-4.3c4.7,0,6.9,2.4,6.9,7v6c0,1.7,0.4,2.4,1.4,2.6v0.3h-4c-1.1,0-1.8-0.5-2.2-1.3c-0.5,1.1-1.6,1.6-3.4,1.6
		c-3.8,0-5.9-1.2-5.9-3.8C127.1,103.6,134.6,104.7,136,101.2 M134.4,111.8c0.9,0,1.7-1.3,1.7-2.7v-6.7c-1.1,2.6-3.4,2-3.4,6.4
		C132.7,110.7,133.5,111.8,134.4,111.8"/>
	<path class="st0" d="M10,75.1v-0.4c1.3-0.2,1.7-1,1.7-3V51.9c0-2-0.4-2.8-1.7-3v-0.4h19.9l1.2,8.3h-0.8c-1.6-6.1-3-7.4-8-7.4h-4
		v11.1c4.4,0,6.3-0.9,6.6-3.1h0.4v7.1h-0.4c-0.4-2.3-2.1-3.1-6.6-3.1v12.6h4.8c5,0,6.4-1.3,8-7.4h0.8l-1.2,8.3H10z"/>
	<path class="st0" d="M31.2,42.2c-5.3,0-10.7,10.6-19.9,10.6c-10.9,0-10.5-13-2.7-13c3,0,5,2,4.5,4.4c-1.7,0-2.5,3.7,1.9,3.7
		c7.5,0,9.5-6.8,17.1-6.8c5.5,0,8.8,3.8,8.8,10v20.7c0,2,0.4,2.8,1.7,3v0.4c-1.3,0-3-0.3-4.9-0.3c-1.9,0-3.5,0.3-4.9,0.3v-0.4
		c1.3-0.2,1.7-1,1.7-3V48.2C34.5,44.3,33.3,42.2,31.2,42.2"/>
	<path class="st1" d="M106.4,186.2c0-3.9-2.3-6.9-5.8-6.9c-3.9,0-6.7,2.1-7.9,4.8c-3.4-0.5-6.2-4.5-6.2-8.8c0-4.8,4.4-9,10.3-9
		c7.6,0,12.6,6.6,12.6,16.9c0,11.2-7.3,18.5-18.4,18.5c-17.4,0-31.5-16.6-39.5-46.4l-1.6-5.8H29.8c-0.2,6.8,1.7,11.8,5.4,12.3v0.8
		c-2.8,0-4.5-0.4-8.5-0.4c-14.9,0-2.1-5.2,2.5-21.7l7.6-28c1-3.6,0.2-6.1-2-6.5v-0.8c3.1,0,7.3,0.7,11.2,0.7c3.9,0,8.5-0.7,11.2-0.7
		v0.8c-2.6,0.5-3.6,2.1-2.4,6.5l10.3,37.8c8.7,32,18,46.1,30.2,46.1C102,196.4,106.4,192.4,106.4,186.2 M39.4,110.6
		c-1.2,4.5-8.2,25.6-9.5,36.8h19.5L39.4,110.6z"/>
	<path class="st1" d="M110,132c0,4.3-2.8,7.1-7.1,7.1c-3.4,0-6.9-2.1-7.6-4.7c2.9-4.7,3.5-11.7-1.3-11.7c-4.9,0-8.2,7.2-8.2,18.1
		c0,11.2,4.6,18,12.1,18c5.5,0,10.5-3.2,14.1-9.1l1.3,1c-5.7,9.2-11.2,12.6-20,12.6c-13.6,0-22.3-8.3-22.3-21.3
		c0-12.1,9.8-21.3,22.4-21.3C103.5,120.7,110,125.1,110,132"/>
	<path class="st1" d="M140.3,133.5c0-6.6-1.7-10.7-5.3-10.7c-4,0-4.8,7-2,11.7c-0.7,2.6-4.3,4.7-7.6,4.7c-4.3,0-7.1-2.8-7.1-7.1
		c0-6.5,8.3-11.2,17.5-11.2c12.4,0,18.3,6.2,18.3,18.5V155c0,4.5,1,6.3,3.7,6.8v0.8h-10.6c-2.8,0-4.8-1.2-5.9-3.4
		c-1.3,3-4.2,4.2-9.1,4.2c-10.1,0-15.5-3.1-15.5-9.9C116.6,139.9,136.4,142.6,140.3,133.5 M135.9,161.4c2.4,0,4.4-3.4,4.4-7.1v-17.7
		c-2.8,6.9-8.9,5.4-8.9,17C131.3,158.4,133.6,161.4,135.9,161.4"/>
	<path class="st1" d="M163,114.1c0-4.3-0.8-6-3.7-6.5v-0.8c5.4,0,14.6-4.1,16.6-6.6h0.8v26.4c2.5-4,6.3-5.9,11.7-5.9
		c10.7,0,17.2,8.8,17.2,23.1c0,12.1-6.2,19.6-16.1,19.6c-6.2,0-10.3-2.1-13-6.3c-0.7,3.4-3,5.5-6.6,5.5h-10.6v-0.8
		c2.8-0.5,3.7-2.4,3.7-6.8V114.1z M184.4,124.4c-4.8,0-7.6,6.6-7.6,17.7c0,10.5,3,17.6,7.6,17.6c4.3,0,6.5-6,6.5-17.6
		C190.8,131.1,188.1,124.4,184.4,124.4"/>
	<path class="st1" d="M231.8,133.5c0-6.6-1.7-10.7-5.3-10.7c-4,0-4.8,7-2,11.7c-0.7,2.6-4.3,4.7-7.6,4.7c-4.3,0-7.1-2.8-7.1-7.1
		c0-6.5,8.3-11.2,17.5-11.2c12.4,0,18.3,6.2,18.3,18.5V155c0,4.5,1,6.3,3.7,6.8v0.8h-10.6c-2.8,0-4.8-1.2-5.9-3.4
		c-1.3,3-4.2,4.2-9.1,4.2c-10.1,0-15.5-3.1-15.5-9.9C208.1,139.9,227.9,142.6,231.8,133.5 M227.4,161.4c2.4,0,4.4-3.4,4.4-7.1v-17.7
		c-2.8,6.9-8.9,5.4-8.9,17C222.8,158.4,225.1,161.4,227.4,161.4"/>
	<path class="st1" d="M268.2,127.7c8.2-14.3,27.7-27.5,40.5-27.5c7.7,0,12.8,4.3,12.8,10.8c0,4.9-3.3,8.4-8,8.4
		c-3.4,0-6.9-2.1-7.6-4.7c2.1-3.5-0.3-7.1-4.8-7.1c-11.1,0-26.9,11.9-32.9,24.4v23.3c0,4.4,0.9,6,3.7,6.5v0.8
		c-2.9,0-6.6-0.7-10.6-0.7c-4,0-7.6,0.7-10.5,0.7v-0.8c2.9-0.5,3.7-2.1,3.7-6.5V133c0-4.3-0.8-6-3.7-6.5v-0.8
		c5.9,0,14.8-2.6,16.6-4.9h0.8V127.7z"/>
	<path class="st0" d="M123.9,176.5c4.6,0,7.6,3.1,7.6,7.8c0,4.7-3,7.8-7.6,7.8c-4.5,0-7.6-3.2-7.6-7.8
		C116.3,179.6,119.4,176.5,123.9,176.5 M124,177c-2.2,0-3.6,2.9-3.6,7.3c0,4.4,1.4,7.3,3.6,7.3c2.2,0,3.6-2.9,3.6-7.3
		C127.5,179.9,126.1,177,124,177"/>
	<path class="st0" d="M131.8,176.9v-0.2c1.5,0,2.1,0.2,3.6,0.2c1,0,2.8-0.2,3.6-0.2v0.2c-0.8,0.1-1,0.6-0.7,1.7l3.4,11.8l3.6-11.9
		c0.2-0.8,0-1.5-0.7-1.6v-0.2c0.8,0,1.8,0.2,2.9,0.2s2.1-0.2,2.9-0.2v0.2c-0.7,0.1-1,0.5-1,1.7V190c0,1.2,0.2,1.6,1,1.7v0.2
		c-0.8,0-1.8-0.2-2.9-0.2s-2.1,0.2-2.9,0.2v-0.2c0.8-0.1,1-0.5,1-1.7v-10.7l-3.8,12.5l-3.7,0l-3.4-11.7c-0.2-0.7-0.4-1.2-0.6-1.7
		v7.7c0,3.3,0.7,5.3,2,5.4v0.2c-0.7,0-1.2-0.1-2.3-0.1s-1.5,0.1-2.3,0.1v-0.2c1.3-0.2,2-2.2,2-5.4v-3.9
		C133.7,179.1,133,177.1,131.8,176.9"/>
	<path class="st0" d="M150.9,191.7c0.9-0.3,2-2.4,2.9-5.7l2-7.4c0.3-1,0.1-1.6-0.5-1.7v-0.2c0.8,0,1.9,0.2,3,0.2c1,0,2.3-0.2,3-0.2
		v0.2c-0.7,0.1-1,0.5-0.6,1.7l2.7,10c0.5,2,1.2,2.9,2,3v0.2c-0.7,0-2.1-0.2-3.1-0.2c-1,0-2.3,0.2-3.1,0.2v-0.2
		c0.8-0.1,1-0.6,0.7-1.7l-0.4-1.5H154c-0.1,1.8,0.5,3.1,1.4,3.3v0.2c-0.7,0-1.2-0.1-2.3-0.1c-1.1,0-1.5,0.1-2.2,0.1V191.7z
		 M156.6,178.1l-2.2,8c-0.2,0.6-0.3,1.2-0.3,1.8h5.2L156.6,178.1z"/>
	<path class="st0" d="M166.8,178.6c0-1.2-0.2-1.6-1-1.7v-0.2h6.2c4.4,0,7,1.6,7,4.3c0,2.7-2.6,4.3-7,4.3h-0.1c1.8,1,2.9,2.7,4.8,2.7
		c1,0,1.9-0.5,2.2-1.4h0.4c0,3.4-1,5.4-2.7,5.4c-3,0-3.8-6.1-6.2-6.7v4.6c0,1.2,0.2,1.6,1,1.7v0.2c-0.8,0-1.8-0.2-2.9-0.2
		c-1.1,0-2.1,0.2-2.9,0.2v-0.2c0.8-0.1,1-0.6,1-1.7V178.6z M171.6,184.8c2.1,0,3.3-1.4,3.3-3.8c0-2.4-1.2-3.8-3.3-3.8h-1v7.6H171.6z
		"/>
	<path class="st0" d="M199,189c-1.3,2.1-3.3,3.1-6,3.1c-4.6,0-7.7-3.2-7.7-7.8c0-4.7,3-7.8,7.5-7.8c3.3,0,6,2,6,4.5
		c0,1.2-0.9,2.1-2,2.1c-0.9,0-1.8-0.5-2-1.2c0.9-2.5,0.1-4.8-1.6-4.8c-2.2,0-3.8,2.8-3.8,7.1c0,4.9,2,7.1,5.2,7.1
		c1.7,0,3.2-0.9,4.2-2.4L199,189z"/>
	<path class="st0" d="M207,176.5c4.6,0,7.6,3.1,7.6,7.8c0,4.7-3,7.8-7.6,7.8c-4.5,0-7.6-3.2-7.6-7.8
		C199.4,179.6,202.4,176.5,207,176.5 M207,177c-2.2,0-3.6,2.9-3.6,7.3c0,4.4,1.4,7.3,3.6,7.3c2.2,0,3.6-2.9,3.6-7.3
		C210.6,179.9,209.2,177,207,177"/>
	<path class="st0" d="M216,178.7c0-1.2-0.2-1.6-1-1.7v-0.2c0.8,0,1.8,0.2,2.9,0.2c1.1,0,2.1-0.2,2.9-0.2v0.2c-0.7,0.1-1,0.5-1,1.7
		v8.2c0,3,1.3,4.7,3.6,4.7c2.3,0,3.9-2,3.9-4.7v-8.2c0-1.2-0.2-1.6-1-1.7v-0.2c0.4,0,0.8,0.1,1.3,0.1c0.4,0,0.8-0.1,1.2-0.1v0.2
		c-0.7,0.1-1,0.5-1,1.7v8.1c0,3.4-2.1,5.6-5.5,5.6c-3.8,0-6.3-2.3-6.3-5.7V178.7z"/>
	<path class="st0" d="M230.3,178.6c0-1.2-0.2-1.6-1-1.7v-0.2h6.2c4.4,0,7,1.6,7,4.3c0,2.7-2.6,4.3-7,4.3h-0.1c1.8,1,2.9,2.7,4.8,2.7
		c1,0,1.9-0.5,2.2-1.4h0.4c0,3.4-1,5.4-2.7,5.4c-3,0-3.8-6.1-6.2-6.7v4.6c0,1.2,0.2,1.6,1,1.7v0.2c-0.8,0-1.8-0.2-2.9-0.2
		c-1.1,0-2.1,0.2-2.9,0.2v-0.2c0.8-0.1,1-0.6,1-1.7V178.6z M235.1,184.8c2.1,0,3.3-1.4,3.3-3.8c0-2.4-1.2-3.8-3.3-3.8h-1v7.6H235.1z
		"/>
	<path class="st0" d="M256.7,181.5h-0.4c-1-3.6-1.6-4.2-4.4-4.2V190c0,1.2,0.2,1.6,1,1.7v0.2c-0.8,0-1.8-0.2-2.9-0.2
		c-1.1,0-2.1,0.2-2.9,0.2v-0.2c0.8-0.1,1-0.6,1-1.7v-12.7c-2.8,0-3.4,0.6-4.4,4.2h-0.4l0.7-4.8h12L256.7,181.5z"/>
	<path class="st0" d="M265.7,191.4c2.8,0,3.7-0.7,4.6-4.2h0.4l-0.7,4.8h-12.9v-0.5l8.7-14.1h-3.3c-2.8,0-3.7,0.7-4.6,4.2h-0.4
		l0.7-4.8h12v0.5l-8.7,14.1H265.7z"/>
</g>
</svg>
