<?xml version="1.0" encoding="utf-8"?>
<!-- Generator: Adobe Illustrator 19.1.0, SVG Export Plug-In . SVG Version: 6.00 Build 0)  -->
<svg version="1.1" id="Layer_1" xmlns="http://www.w3.org/2000/svg" xmlns:xlink="http://www.w3.org/1999/xlink" x="0px" y="0px"
	 viewBox="0 0 1594.7 298.2" style="enable-background:new 0 0 1594.7 298.2;" xml:space="preserve">
<style type="text/css">
	.st0{fill:#FFFFFF;}
	.st1{fill:#FFBDF5;}
</style>
<path class="st0" d="M98.4,47.9v-2c14,0,19.2,1.6,33,1.6c9.5,0,25.9-1.6,33-1.6v2c-6.9,1.2-8.9,5.5-5.9,15.6l31.3,107.2l32.8-108.4
	c2.2-7.1-0.4-13.5-6.1-14.4v-2c6.9,0,16.4,1.6,26.1,1.6s19.4-1.6,26.3-1.6v2c-6.7,1.2-8.9,4.9-8.9,15.6v103.3
	c0,10.7,2.2,14.4,8.9,15.6v2c-6.9,0-16.6-1.6-26.3-1.6s-19.2,1.6-26.1,1.6v-2c6.9-1.2,8.9-4.9,8.9-15.2V70.2L191,184.4l-33.4,0.2
	L126.7,78.1c-1.8-6.3-3.6-11.3-5.3-15.4v70.4c0,29.7,6.7,48.1,18.2,49.5v2c-6.7,0-10.9-1-20.6-1s-13.8,1-20.6,1v-2
	c11.5-1.4,18-19.6,18-49.5V97.3C116.4,67.5,109.9,49.3,98.4,47.9"/>
<path class="st0" d="M378.5,166c0,10.7,2.2,15.2,8.9,16.4v2h-25.5c-10.3,0-16.4-6.9-16.4-18.4v0.8c-5.5,10.3-17.8,17.6-31.3,17.6
	c-23.3,0-36.4-15-36.4-41.9V113c0-10.5-2-14.4-8.9-15.6v-2c14.2,0,35.6-6.3,40-11.9h2v58.9c0,20.6,4.9,31.1,14.6,31.1
	c8.1,0,15.6-5.5,20-16.4V113c0-10.5-2-14.4-8.9-15.6v-2c14.2,0,35.6-6.3,40-11.9h2V166z"/>
<path class="st0" d="M433.3,166.8c0,10.7,2.2,14.4,8.9,15.6v2c-6.9,0-15.8-1.6-25.5-1.6c-9.7,0-18.4,1.6-25.3,1.6v-2
	c6.9-1.2,8.9-5.1,8.9-15.6V113c0-10.5-2-14.4-8.9-15.6v-2c14.2,0,35.6-6.3,40-11.9h2v16.8c6.1-10.3,19.8-17.6,33.2-17.6
	c24.1,0,36.4,16,36.4,47.7v36.4c0,10.7,2.2,14.4,8.9,15.6v2c-6.9,0-15.8-1.6-25.5-1.6s-18.4,1.6-25.3,1.6v-2
	c6.9-1.2,8.9-5.1,8.9-15.6v-42.1c0-20.6-4.9-31.1-14.6-31.1c-8.1,0-16.8,5.5-22,16.4V166.8z"/>
<path class="st0" d="M619.6,166c0,10.7,2.2,15.2,8.9,16.4v2H603c-8.7,0-14.4-4.9-16-13.3c-5.9,10.1-15.4,15.2-28.5,15.2
	c-25.7,0-41.5-21.2-41.5-55.6c0-29.1,15-47.3,38.8-47.3c14.4,0,24.5,4.5,30.9,14.4V44.1c0-20.6-6.1-31.7-17.4-31.7
	c-27.9,0-55.6,55.2-103.9,55.2c-57,0-55-67.7-14.2-67.7c15.4,0,26.1,10.5,23.3,22.7c-9.1,0-12.9,19.2,10.1,19.2
	c39.4,0,49.5-35.4,89.2-35.4c28.5,0,45.9,19.8,45.9,52.2V166z M568.2,177.4c11.5,0,18.4-16,18.4-42.7c0-25.3-7.3-42.3-18.4-42.3
	c-10.3,0-15.6,14.4-15.6,42.3C552.6,161.4,559.1,177.4,568.2,177.4"/>
<path class="st0" d="M682.3,83.5c29.9,0,49.9,20.8,49.9,51.6c0,30.7-20,51.2-49.9,51.2c-29.9,0-49.8-20.6-49.8-51.2
	C632.5,104.2,652.5,83.5,682.3,83.5 M682.5,88.4c-9.7,0-14.4,15.6-14.4,46.7c0,30.9,4.7,46.3,14.4,46.3c9.5,0,14-15.2,14-46.3
	C696.6,104.4,691.8,88.4,682.5,88.4"/>
<path class="st0" d="M583.5,267.5c-14.7,0-24.6-5.5-24.6-13.6c0-4.5,3.4-7.5,8.4-7.5c4.6,0,8.2,2.6,9,5.8c-5,5.8-1.8,12.5,5.9,12.5
	c5.1,0,8.7-3,8.7-7.3c0-12.3-29.9-11.2-29.9-27c0-8.5,8.7-13.3,22.6-13.3c13.1,0,22.6,5.9,22.6,13.1c0,3.6-2.9,5.6-7.8,5.6
	c-3.6,0-7.2-1.8-7.7-3.8c3.5-6.2,0-12.4-6-12.4c-3.8,0-6.4,2.7-6.4,6.7c0,11.3,29.9,9.9,29.9,27.4
	C608.2,262.1,598.5,267.5,583.5,267.5"/>
<path class="st0" d="M629.8,251.1c2.1,6.8,6.6,10.7,12.8,10.7c5.5,0,11.6-4.4,14.6-10.7l1.5,1.2c-5.6,10.2-12.3,14.8-21.5,14.8
	c-16,0-26.2-9.7-26.2-25c0-14.6,11-25,26.3-25c12.5,0,19.4,6.1,19.4,15.8C656.8,243.1,647.7,249.7,629.8,251.1 M643.2,231.6
	c0-7.6-1.3-12.1-5.7-12.1c-5.5,0-9.1,8.8-9.1,21.2c0,2.9,0.3,5.6,0.8,8C638.2,247.6,643.2,240.9,643.2,231.6"/>
<path class="st0" d="M723.1,235c3.1-8.5,1.2-15.2-2.7-16v-1c2.4,0,4.3,0.4,7.6,0.4c3.4,0,5.3-0.4,7.6-0.4v1
	c-4.2,0.9-6.9,7.8-10.5,17.6l-8.6,23.4c-1.2,3.2-0.7,4.8,1.6,5.2v1c-3.3,0-7.3-0.6-11.3-0.6c-4,0-9,0.6-11.3,0.6v-1
	c2.7-0.4,3.3-1.9,2-5.2l-12.2-31.6c-2.4-6.3-4.9-8.9-8.3-9.3v-1c4.1,0,8.5,0.6,13.9,0.6c5.5,0,10.5-0.6,13.9-0.6v1
	c-2.9,0.4-3.7,3.3-1.9,8.1l11.3,31.8L723.1,235z"/>
<path class="st0" d="M759.5,232c0-7.8-2-12.5-6.3-12.5c-4.7,0-5.7,8.2-2.3,13.7c-0.9,3.1-5.1,5.5-8.9,5.5c-5.1,0-8.4-3.3-8.4-8.4
	c0-7.6,9.7-13.2,20.5-13.2c14.5,0,21.4,7.3,21.4,21.6v18.5c0,5.3,1.2,7.4,4.3,8v1h-12.4c-3.3,0-5.7-1.4-6.9-3.9
	c-1.5,3.5-4.9,4.9-10.7,4.9c-11.8,0-18.2-3.7-18.2-11.6C731.7,239.5,755,242.7,759.5,232 M754.3,264.7c2.8,0,5.2-3.9,5.2-8.4v-20.8
	c-3.3,8.1-10.5,6.3-10.5,19.9C749,261.2,751.6,264.7,754.3,264.7"/>
<path class="st0" d="M825.6,232c0-7.8-2-12.5-6.3-12.5c-4.7,0-5.7,8.2-2.3,13.7c-0.9,3.1-5.1,5.5-8.9,5.5c-5.1,0-8.4-3.3-8.4-8.4
	c0-7.6,9.7-13.2,20.5-13.2c14.5,0,21.4,7.3,21.4,21.6v18.5c0,5.3,1.2,7.4,4.3,8v1h-12.4c-3.3,0-5.7-1.4-6.9-3.9
	c-1.5,3.5-4.9,4.9-10.7,4.9c-11.8,0-18.2-3.7-18.2-11.6C797.8,239.5,821,242.7,825.6,232 M820.4,264.7c2.8,0,5.2-3.9,5.2-8.4v-20.8
	c-3.3,8.1-10.5,6.3-10.5,19.9C815.1,261.2,817.7,264.7,820.4,264.7"/>
<path class="st0" d="M17.2,154.2v-0.9c3.2-0.5,4.1-2.4,4.1-7.2V98.4c0-4.8-0.9-6.7-4.1-7.2v-0.9h48l2.9,20.1h-1.8
	C62.4,95.6,59,92.5,47,92.5h-9.7v26.8c10.5,0,15.1-2.1,15.9-7.5h0.9V129h-0.9c-0.9-5.5-5.1-7.4-15.9-7.4V152h11.5
	c12,0,15.4-3.1,19.3-17.8H70L67,154.2H17.2z"/>
<path class="st0" d="M68.3,74.8c-12.9,0-25.7,25.5-48,25.5C-6,100.3-5.1,69,13.7,69c7.1,0,12.1,4.8,10.8,10.5
	c-4.2,0-5.9,8.9,4.7,8.9C47.4,88.4,52,72,70.4,72c13.2,0,21.2,9.1,21.2,24.1v49.9c0,4.9,1,6.7,4.1,7.2v0.9c-3.2,0-7.3-0.7-11.8-0.7
	c-4.5,0-8.5,0.7-11.7,0.7v-0.9c3.2-0.5,4.1-2.4,4.1-7.2V89.4C76.3,79.9,73.5,74.8,68.3,74.8"/>
<path class="st1" d="M1005.8,256c0-10.8-6.3-18.9-16-18.9c-10.8,0-18.4,5.6-21.6,13c-9.2-1.3-16.8-12.4-16.8-24
	c0-13.3,12.1-24.7,28.3-24.7c20.9,0,34.4,18.2,34.4,46.3c0,30.6-20,50.5-50.3,50.5c-47.6,0-86.3-45.4-108.1-126.9l-4.3-16H796
	c-0.7,18.6,4.7,32.4,14.8,33.7v2.2c-7.6,0-12.4-1.1-23.4-1.1c-40.9,0-5.6-14.2,6.7-59.5L815.1,54c2.7-9.9,0.7-16.6-5.4-17.7V34
	c8.5,0,20,1.8,30.8,1.8c10.8,0,23.4-1.8,30.8-1.8v2.2c-7.2,1.3-9.9,5.6-6.5,17.7l28.1,103.6c23.8,87.6,49.2,126.3,82.7,126.3
	C993.9,283.8,1005.8,272.8,1005.8,256 M822.5,48.8c-3.4,12.4-22.5,70.1-26.1,100.9h53.5L822.5,48.8z"/>
<path class="st1" d="M1015.7,107.5c0,11.9-7.6,19.5-19.5,19.5c-9.4,0-18.9-5.8-20.9-12.8c7.9-12.8,9.7-31.9-3.6-31.9
	c-13.5,0-22.5,19.8-22.5,49.7c0,30.6,12.6,49.2,33.3,49.2c15.1,0,28.8-8.8,38.6-24.9l3.6,2.7c-15.7,25.2-30.8,34.6-54.8,34.6
	c-37.3,0-61.1-22.7-61.1-58.4c0-33,26.7-58.4,61.3-58.4C997.9,76.7,1015.7,88.6,1015.7,107.5"/>
<path class="st1" d="M1098.6,111.5c0-18.2-4.7-29.2-14.6-29.2c-11,0-13.3,19.1-5.4,31.9c-2,7.2-11.9,12.8-20.9,12.8
	c-11.9,0-19.5-7.6-19.5-19.5c0-17.7,22.7-30.8,47.9-30.8c33.9,0,50.1,17.1,50.1,50.6v43.1c0,12.4,2.7,17.3,10.1,18.6v2.2h-29
	c-7.6,0-13.3-3.4-16.2-9.2c-3.6,8.1-11.5,11.5-24.9,11.5c-27.6,0-42.5-8.5-42.5-27.2C1033.7,129,1088,136.4,1098.6,111.5
	 M1086.5,187.9c6.5,0,12.1-9.2,12.1-19.5v-48.5c-7.6,18.9-24.5,14.8-24.5,46.5C1074.1,179.8,1080.2,187.9,1086.5,187.9"/>
<path class="st1" d="M1160.8,58.5c0-11.9-2.2-16.4-10.1-17.7v-2.2c14.8,0,40-11.2,45.4-18h2.2v72.3c6.7-11,17.3-16.2,31.9-16.2
	c29.2,0,47.2,24,47.2,63.1c0,33-17.1,53.7-44,53.7c-16.9,0-28.3-5.6-35.5-17.3c-1.8,9.4-8.3,15.1-18.2,15.1h-29V189
	c7.6-1.3,10.1-6.5,10.1-18.6V58.5z M1219.2,86.8c-13,0-20.9,18.2-20.9,48.5c0,28.8,8.3,48.1,20.9,48.1c11.7,0,17.7-16.4,17.7-48.1
	C1237,105,1229.6,86.8,1219.2,86.8"/>
<path class="st1" d="M1349.1,111.5c0-18.2-4.7-29.2-14.6-29.2c-11,0-13.3,19.1-5.4,31.9c-2,7.2-11.9,12.8-20.9,12.8
	c-11.9,0-19.5-7.6-19.5-19.5c0-17.7,22.7-30.8,47.9-30.8c33.9,0,50.1,17.1,50.1,50.6v43.1c0,12.4,2.7,17.3,10.1,18.6v2.2h-29
	c-7.6,0-13.3-3.4-16.2-9.2c-3.6,8.1-11.5,11.5-24.9,11.5c-27.6,0-42.5-8.5-42.5-27.2C1284.2,129,1338.5,136.4,1349.1,111.5
	 M1337,187.9c6.5,0,12.1-9.2,12.1-19.5v-48.5c-7.6,18.9-24.5,14.8-24.5,46.5C1324.6,179.8,1330.7,187.9,1337,187.9"/>
<path class="st1" d="M1448.8,95.8c22.5-39.1,75.7-75.3,110.8-75.3c21.1,0,35,11.7,35,29.7c0,13.5-9,22.9-21.8,22.9
	c-9.4,0-18.9-5.8-20.9-12.8c5.6-9.7-0.9-19.5-13-19.5c-30.3,0-73.7,32.6-90.1,66.7v63.8c0,12.1,2.5,16.4,10.1,17.7v2.2
	c-7.9,0-18-1.8-29-1.8c-11,0-20.9,1.8-28.8,1.8V189c7.9-1.3,10.1-5.8,10.1-17.7v-61.1c0-11.9-2.2-16.4-10.1-17.7v-2.2
	c16.2,0,40.4-7.2,45.4-13.5h2.2V95.8z"/>
<path class="st0" d="M1056.2,220.2c12.7,0,21.2,8.7,21.2,21.8c0,13-8.5,21.8-21.2,21.8c-12.6,0-21.2-8.8-21.2-21.8
	C1035,228.9,1043.5,220.2,1056.2,220.2 M1056.2,221.7c-6.1,0-10,8-10,20.3c0,12.2,4,20.3,10,20.3c6,0,9.9-8,9.9-20.3
	C1066.2,229.6,1062.3,221.7,1056.2,221.7"/>
<path class="st0" d="M1078,221.4v-0.6c4.3,0,5.9,0.5,10.1,0.5c2.9,0,7.9-0.5,10.1-0.5v0.6c-2.1,0.4-2.7,1.7-1.8,4.8l9.6,32.8
	l10-33.2c0.7-2.2-0.1-4.1-1.9-4.4v-0.6c2.1,0,5,0.5,8,0.5c3,0,5.9-0.5,8-0.5v0.6c-2.1,0.4-2.7,1.5-2.7,4.8v31.6
	c0,3.3,0.7,4.4,2.7,4.8v0.6c-2.1,0-5.1-0.5-8-0.5c-3,0-5.9,0.5-8,0.5v-0.6c2.1-0.4,2.7-1.5,2.7-4.7v-29.6l-10.5,34.9l-10.2,0.1
	l-9.4-32.5c-0.5-1.9-1.1-3.4-1.6-4.7v21.5c0,9.1,2.1,14.7,5.6,15.1v0.6c-2.1,0-3.3-0.3-6.3-0.3c-3,0-4.2,0.3-6.3,0.3v-0.6
	c3.5-0.4,5.5-6,5.5-15.1v-11C1083.5,227.4,1081.5,221.8,1078,221.4"/>
<path class="st0" d="M1131.3,262.5c2.6-0.8,5.6-6.6,8-15.7l5.6-20.6c0.7-2.7,0.2-4.5-1.5-4.8v-0.6c2.3,0,5.4,0.5,8.3,0.5
	c2.9,0,6.3-0.5,8.3-0.5v0.6c-1.9,0.4-2.7,1.5-1.8,4.8l7.6,27.9c1.5,5.4,3.2,8.1,5.6,8.5v0.6c-2.1,0-5.7-0.5-8.7-0.5
	c-2.9,0-6.5,0.5-8.7,0.5v-0.6c2.1-0.4,2.7-1.7,1.8-4.8l-1.2-4.3h-14.9c-0.2,5,1.3,8.7,4,9.1v0.6c-2.1,0-3.3-0.3-6.3-0.3
	c-3,0-4.2,0.3-6.2,0.3V262.5z M1147,224.8l-6.1,22.2c-0.5,1.7-0.7,3.4-0.9,5h14.4L1147,224.8z"/>
<path class="st0" d="M1175.5,226.2c0-3.2-0.6-4.4-2.7-4.8v-0.6h17.2c12.3,0,19.4,4.4,19.4,12.1c0,7.6-7.2,12.1-19.4,12.1h-0.2
	c5.1,2.7,8,7.6,13.4,7.6c2.8,0,5.2-1.5,6.2-3.9h1.2c0,9.5-2.7,15.1-7.4,15.1c-8.4,0-10.6-16.9-17.1-18.8v12.8c0,3.3,0.7,4.4,2.7,4.8
	v0.6c-2.1,0-5.1-0.5-8-0.5s-5.9,0.5-8,0.5v-0.6c2.1-0.4,2.7-1.6,2.7-4.8V226.2z M1188.9,243.5c5.8,0,9.3-4,9.3-10.6
	c0-6.7-3.4-10.6-9.3-10.6h-2.8v21.2H1188.9z"/>
<path class="st0" d="M1265,255c-3.6,5.8-9.2,8.7-16.6,8.7c-12.8,0-21.5-8.8-21.5-21.8c0-13.1,8.3-21.8,20.8-21.8
	c9.3,0,16.6,5.6,16.6,12.6c0,3.4-2.5,5.8-5.7,5.8c-2.5,0-5-1.5-5.5-3.4c2.4-7,0.4-13.4-4.4-13.4c-6,0-10.6,7.8-10.6,19.7
	c0,13.7,5.7,19.7,14.3,19.7c4.8,0,9-2.5,11.6-6.7L1265,255z"/>
<path class="st0" d="M1287.4,220.2c12.7,0,21.2,8.7,21.2,21.8c0,13-8.5,21.8-21.2,21.8c-12.6,0-21.2-8.8-21.2-21.8
	C1266.2,228.9,1274.7,220.2,1287.4,220.2 M1287.5,221.7c-6.1,0-10,8-10,20.3c0,12.2,4,20.3,10,20.3c6,0,9.9-8,9.9-20.3
	C1297.4,229.6,1293.5,221.7,1287.5,221.7"/>
<path class="st0" d="M1312.5,226.2c0-3.3-0.6-4.5-2.7-4.8v-0.6c2.1,0,5,0.5,8,0.5c3,0,5.9-0.5,8-0.5v0.6c-2.1,0.4-2.7,1.5-2.7,4.8
	v22.7c0,8.2,3.8,13.1,10.1,13.1c6.3,0,10.8-5.4,10.8-13.1v-22.7c0-3.3-0.6-4.5-2.7-4.8v-0.6c1.1,0,2.4,0.3,3.5,0.3
	c1.1,0,2.3-0.3,3.4-0.3v0.6c-2.1,0.4-2.7,1.5-2.7,4.8v22.6c0,9.5-5.9,15.5-15.3,15.5c-10.5,0-17.7-6.5-17.7-15.9V226.2z"/>
<path class="st0" d="M1352.2,226.2c0-3.2-0.6-4.4-2.7-4.8v-0.6h17.2c12.3,0,19.4,4.4,19.4,12.1c0,7.6-7.2,12.1-19.4,12.1h-0.2
	c5.1,2.7,8,7.6,13.4,7.6c2.8,0,5.2-1.5,6.2-3.9h1.2c0,9.5-2.7,15.1-7.4,15.1c-8.4,0-10.6-16.9-17.1-18.8v12.8c0,3.3,0.7,4.4,2.7,4.8
	v0.6c-2.1,0-5.1-0.5-8-0.5s-5.9,0.5-8,0.5v-0.6c2.1-0.4,2.7-1.6,2.7-4.8V226.2z M1365.5,243.5c5.8,0,9.3-4,9.3-10.6
	c0-6.7-3.4-10.6-9.3-10.6h-2.8v21.2H1365.5z"/>
<path class="st0" d="M1425.8,234.1h-1.2c-2.7-10-4.5-11.8-12.2-11.8v35.5c0,3.3,0.7,4.4,2.7,4.8v0.6c-2.1,0-5.1-0.5-8-0.5
	c-3,0-5.9,0.5-8,0.5v-0.6c2.1-0.4,2.7-1.6,2.7-4.8v-35.5c-7.7,0-9.5,1.8-12.2,11.8h-1.2l1.9-13.3h33.5L1425.8,234.1z"/>
<path class="st0" d="M1450.8,261.6c7.9,0,10.2-2.1,12.8-11.8h1.2l-1.9,13.3H1427v-1.5l24.3-39.3h-9.1c-7.9,0-10.2,2.1-12.8,11.8
	h-1.2l1.9-13.3h33.5v1.5l-24.1,39.3H1450.8z"/>
</svg>
