<?xml version="1.0" encoding="utf-8"?>
<!-- Generator: Adobe Illustrator 19.1.0, SVG Export Plug-In . SVG Version: 6.00 Build 0)  -->
<svg version="1.1" id="Layer_1" xmlns="http://www.w3.org/2000/svg" xmlns:xlink="http://www.w3.org/1999/xlink" x="0px" y="0px"
	 viewBox="-163 369 285 55" style="enable-background:new -163 369 285 55;" xml:space="preserve">
<style type="text/css">
	.st0{fill:#1B1733;}
	.st1{fill:#FFFFFF;}
</style>
<path class="st0" d="M94.5,424h-230c-15.2,0-27.5-12.3-27.5-27.5l0,0c0-15.2,12.3-27.5,27.5-27.5h230c15.2,0,27.5,12.3,27.5,27.5
	l0,0C122,411.7,109.7,424,94.5,424z"/>
<g>
	<g>
		<g>
			<path class="st1" d="M-23.9,407.9c-0.8-0.5-1.3-1.4-1.7-2.5c-0.3-1.1-0.5-2.6-0.5-4.5v-2.5c0-1.9,0.2-3.4,0.6-4.5
				c0.4-1.1,1-2,1.8-2.5s1.9-0.8,3.2-0.8s2.3,0.3,3.1,0.8s1.3,1.4,1.7,2.5s0.5,2.6,0.5,4.5v2.6c0,1.9-0.2,3.3-0.5,4.5
				c-0.4,1.1-0.9,1.9-1.7,2.5c-0.8,0.5-1.9,0.8-3.2,0.8C-22,408.7-23.1,408.4-23.9,407.9z M-19.5,405.2c0.2-0.6,0.3-1.5,0.3-2.8V397
				c0-1.2-0.1-2.2-0.3-2.7c-0.2-0.6-0.6-0.9-1.2-0.9c-0.5,0-0.9,0.3-1.1,0.9c-0.2,0.6-0.3,1.5-0.3,2.7v5.4c0,1.3,0.1,2.2,0.3,2.8
				c0.2,0.6,0.6,0.9,1.1,0.9C-20.1,406-19.7,405.7-19.5,405.2z"/>
			<path class="st1" d="M36.4,401v0.9c0,1.1,0,2,0.1,2.5c0.1,0.6,0.2,1,0.4,1.2c0.2,0.3,0.5,0.4,1,0.4c0.6,0,1-0.2,1.2-0.7
				s0.3-1.2,0.4-2.3l3.4,0.2c0,0.2,0,0.4,0,0.6c0,1.6-0.4,2.8-1.3,3.6c-0.9,0.8-2.1,1.2-3.7,1.2c-1.9,0-3.3-0.6-4.1-1.8
				c-0.8-1.2-1.2-3.1-1.2-5.6v-3c0-2.6,0.4-4.5,1.2-5.7s2.2-1.8,4.1-1.8c1.3,0,2.4,0.2,3.1,0.7c0.7,0.5,1.2,1.3,1.5,2.3
				s0.4,2.5,0.4,4.3v3C42.9,401,36.4,401,36.4,401z M36.9,393.7c-0.2,0.2-0.3,0.6-0.4,1.2c-0.1,0.6-0.1,1.4-0.1,2.5v1.2h2.9v-1.2
				c0-1.1,0-2-0.1-2.5c-0.1-0.6-0.2-1-0.4-1.2c-0.2-0.2-0.5-0.4-0.9-0.4C37.4,393.3,37.1,393.4,36.9,393.7z"/>
			<path class="st1" d="M-33.4,400.7l-4.5-16.1h3.9l1.6,7.3c0.4,1.8,0.7,3.3,0.9,4.6h0.1c0.1-0.9,0.4-2.4,0.9-4.6l1.6-7.3h3.9
				l-4.5,16.1v7.7h-3.9V400.7z"/>
			<path class="st1" d="M-2.5,391v17.4h-3.1l-0.3-2.1H-6c-0.8,1.6-2.1,2.4-3.7,2.4c-1.2,0-2-0.4-2.6-1.1c-0.5-0.8-0.8-1.9-0.8-3.5
				V391h3.9v12.8c0,0.8,0.1,1.3,0.3,1.7c0.2,0.3,0.5,0.5,0.9,0.5c0.3,0,0.7-0.1,1-0.3c0.3-0.2,0.5-0.5,0.7-0.8V391H-2.5z"/>
			<path class="st1" d="M17.6,391v17.4h-3.1l-0.3-2.1h-0.1c-0.8,1.6-2.1,2.4-3.7,2.4c-1.2,0-2-0.4-2.6-1.1c-0.5-0.8-0.8-1.9-0.8-3.5
				V391h3.9v12.8c0,0.8,0.1,1.3,0.3,1.7c0.2,0.3,0.5,0.5,0.9,0.5c0.3,0,0.7-0.1,1-0.3c0.3-0.2,0.5-0.5,0.7-0.8V391H17.6z"/>
			<path class="st1" d="M8.1,387.7H4.2v20.7H0.4v-20.7h-3.9v-3.2H8.1L8.1,387.7L8.1,387.7z"/>
			<path class="st1" d="M30.5,393.8c-0.2-1.1-0.6-1.9-1.2-2.4c-0.5-0.5-1.3-0.7-2.2-0.7c-0.7,0-1.4,0.2-2,0.6
				c-0.6,0.4-1.1,0.9-1.4,1.6l0,0v-9.2h-3.8v24.7h3.2l0.4-1.6h0.1c0.3,0.6,0.8,1.1,1.4,1.4c0.6,0.3,1.3,0.5,2,0.5
				c1.3,0,2.3-0.6,2.9-1.8c0.6-1.2,0.9-3.1,0.9-5.7v-2.8C30.9,396.4,30.8,394.9,30.5,393.8z M26.9,400.9c0,1.3-0.1,2.3-0.2,3
				c-0.1,0.7-0.3,1.2-0.5,1.5c-0.2,0.3-0.6,0.5-1,0.5c-0.3,0-0.6-0.1-0.9-0.2c-0.3-0.2-0.5-0.4-0.7-0.7v-9.9
				c0.1-0.5,0.4-0.9,0.7-1.2c0.3-0.3,0.7-0.5,1.1-0.5c0.4,0,0.7,0.2,0.9,0.5c0.2,0.3,0.4,0.8,0.5,1.6c0.1,0.7,0.1,1.8,0.1,3.2
				L26.9,400.9L26.9,400.9z"/>
		</g>
	</g>
	<path class="st1" d="M-42.6,386.9c-0.5-1.7-1.8-3.1-3.5-3.5c-3.1-0.8-15.5-0.8-15.5-0.8s-12.4,0-15.5,0.8c-1.7,0.5-3.1,1.8-3.5,3.5
		c-0.8,3.1-0.8,9.6-0.8,9.6s0,6.5,0.8,9.6c0.5,1.7,1.8,3.1,3.5,3.5c3.1,0.8,15.5,0.8,15.5,0.8s12.4,0,15.5-0.8
		c1.7-0.5,3.1-1.8,3.5-3.5c0.8-3.1,0.8-9.6,0.8-9.6S-41.8,390-42.6,386.9z M-66,402.5v-12l10.3,6L-66,402.5z"/>
</g>
</svg>
